<svg xmlns="http://www.w3.org/2000/svg" xmlns:xlink="http://www.w3.org/1999/xlink" width="192" zoomAndPan="magnify" viewBox="0 0 144 143.999998" height="192" preserveAspectRatio="xMidYMid meet" version="1.0"><defs><clipPath id="769e0082bd"><path d="M 0 0.261719 L 144 0.261719 L 144 143.511719 L 0 143.511719 Z M 0 0.261719 " clip-rule="nonzero"/></clipPath></defs><g clip-path="url(#769e0082bd)"><path fill="#000000" d="M 144.015625 72.269531 C 144.015625 32.496094 111.777344 0.261719 72.011719 0.261719 C 32.246094 0.261719 0.00390625 32.496094 0.00390625 72.269531 C 0.00390625 106.039062 23.25 134.375 54.617188 142.15625 L 54.617188 94.273438 L 39.765625 94.273438 L 39.765625 72.269531 L 54.617188 72.269531 L 54.617188 62.789062 C 54.617188 38.28125 65.707031 26.921875 89.765625 26.921875 C 94.328125 26.921875 102.199219 27.8125 105.417969 28.710938 L 105.417969 48.65625 C 103.71875 48.472656 100.765625 48.382812 97.101562 48.382812 C 85.292969 48.382812 80.730469 52.855469 80.730469 64.480469 L 80.730469 72.261719 L 104.25 72.261719 L 100.210938 94.269531 L 80.730469 94.269531 L 80.730469 143.742188 C 116.386719 139.4375 144.015625 109.074219 144.015625 72.261719 Z M 144.015625 72.269531 " fill-opacity="1" fill-rule="nonzero"/></g></svg>