<svg xmlns="http://www.w3.org/2000/svg" xmlns:xlink="http://www.w3.org/1999/xlink" width="192" zoomAndPan="magnify" viewBox="0 0 144 143.999998" height="192" preserveAspectRatio="xMidYMid meet" version="1.0"><defs><clipPath id="67e6133732"><path d="M 2.429688 61 L 73 61 L 73 132 L 2.429688 132 Z M 2.429688 61 " clip-rule="nonzero"/></clipPath><clipPath id="ad777165e3"><path d="M 8 4 L 141.929688 4 L 141.929688 132 L 8 132 Z M 8 4 " clip-rule="nonzero"/></clipPath></defs><g clip-path="url(#67e6133732)"><path fill="#125873" d="M 72.542969 96.835938 C 72.542969 97.984375 72.488281 99.128906 72.375 100.269531 C 72.261719 101.410156 72.09375 102.546875 71.871094 103.671875 C 71.648438 104.796875 71.367188 105.90625 71.035156 107.007812 C 70.703125 108.105469 70.316406 109.183594 69.875 110.242188 C 69.4375 111.304688 68.949219 112.339844 68.40625 113.351562 C 67.867188 114.363281 67.277344 115.347656 66.636719 116.300781 C 66 117.253906 65.316406 118.175781 64.589844 119.0625 C 63.863281 119.949219 63.09375 120.800781 62.28125 121.609375 C 61.46875 122.421875 60.621094 123.191406 59.734375 123.921875 C 58.847656 124.648438 57.925781 125.332031 56.972656 125.96875 C 56.015625 126.605469 55.035156 127.195312 54.023438 127.734375 C 53.011719 128.277344 51.972656 128.765625 50.914062 129.207031 C 49.855469 129.644531 48.773438 130.03125 47.675781 130.363281 C 46.578125 130.699219 45.464844 130.976562 44.339844 131.199219 C 43.214844 131.425781 42.082031 131.59375 40.941406 131.703125 C 39.796875 131.816406 38.652344 131.875 37.503906 131.875 C 36.359375 131.875 35.214844 131.816406 34.070312 131.703125 C 32.929688 131.59375 31.796875 131.425781 30.667969 131.199219 C 29.542969 130.976562 28.433594 130.699219 27.335938 130.363281 C 26.234375 130.03125 25.15625 129.644531 24.097656 129.207031 C 23.035156 128.765625 22 128.277344 20.988281 127.734375 C 19.976562 127.195312 18.992188 126.605469 18.039062 125.96875 C 17.085938 125.332031 16.164062 124.648438 15.277344 123.921875 C 14.390625 123.191406 13.539062 122.421875 12.730469 121.609375 C 11.917969 120.800781 11.148438 119.949219 10.421875 119.0625 C 9.691406 118.175781 9.007812 117.253906 8.371094 116.300781 C 7.734375 115.347656 7.144531 114.363281 6.605469 113.351562 C 6.0625 112.339844 5.574219 111.304688 5.132812 110.242188 C 4.695312 109.183594 4.308594 108.105469 3.976562 107.007812 C 3.640625 105.90625 3.363281 104.796875 3.140625 103.671875 C 2.917969 102.546875 2.75 101.410156 2.636719 100.269531 C 2.523438 99.128906 2.46875 97.984375 2.46875 96.835938 C 2.46875 95.6875 2.523438 94.542969 2.636719 93.402344 C 2.75 92.257812 2.917969 91.125 3.140625 90 C 3.363281 88.875 3.640625 87.761719 3.976562 86.664062 C 4.308594 85.566406 4.695312 84.488281 5.132812 83.425781 C 5.574219 82.367188 6.0625 81.328125 6.605469 80.316406 C 7.144531 79.304688 7.734375 78.324219 8.371094 77.367188 C 9.007812 76.414062 9.691406 75.492188 10.421875 74.605469 C 11.148438 73.71875 11.917969 72.871094 12.730469 72.058594 C 13.539062 71.246094 14.390625 70.476562 15.277344 69.75 C 16.164062 69.023438 17.085938 68.339844 18.039062 67.703125 C 18.992188 67.0625 19.976562 66.476562 20.988281 65.933594 C 22 65.394531 23.035156 64.902344 24.097656 64.464844 C 25.15625 64.023438 26.234375 63.636719 27.335938 63.304688 C 28.433594 62.972656 29.542969 62.695312 30.667969 62.46875 C 31.796875 62.246094 32.929688 62.078125 34.070312 61.964844 C 35.214844 61.851562 36.359375 61.796875 37.503906 61.796875 C 38.652344 61.796875 39.796875 61.851562 40.941406 61.964844 C 42.082031 62.078125 43.214844 62.246094 44.339844 62.46875 C 45.464844 62.695312 46.578125 62.972656 47.675781 63.304688 C 48.773438 63.636719 49.855469 64.023438 50.914062 64.464844 C 51.972656 64.902344 53.011719 65.394531 54.023438 65.933594 C 55.035156 66.476562 56.015625 67.0625 56.972656 67.703125 C 57.925781 68.339844 58.847656 69.023438 59.734375 69.75 C 60.621094 70.476562 61.46875 71.246094 62.28125 72.058594 C 63.09375 72.871094 63.863281 73.71875 64.589844 74.605469 C 65.316406 75.492188 66 76.414062 66.636719 77.367188 C 67.277344 78.324219 67.867188 79.304688 68.40625 80.316406 C 68.949219 81.328125 69.4375 82.367188 69.875 83.425781 C 70.316406 84.488281 70.703125 85.566406 71.035156 86.664062 C 71.367188 87.761719 71.648438 88.875 71.871094 90 C 72.09375 91.125 72.261719 92.257812 72.375 93.402344 C 72.488281 94.542969 72.542969 95.6875 72.542969 96.835938 Z M 72.542969 96.835938 " fill-opacity="1" fill-rule="nonzero"/></g><path fill="#ffffff" d="M 71.4375 42.488281 C 69.117188 42.546875 49.210938 42.785156 45.996094 43.160156 C 41.179688 43.714844 28.597656 39.824219 29.03125 45.113281 C 32.40625 85.867188 26.488281 91.375 34.546875 91.304688 C 46.035156 91.207031 70.945312 89.421875 91.132812 90.863281 C 89.710938 89.277344 79.730469 78.125 87.730469 64.480469 C 94.699219 52.605469 113.9375 56.9375 116.230469 57.457031 C 117.953125 48.441406 118.109375 41.015625 110.625 41.738281 C 99.398438 42.820312 96.1875 44.199219 85.054688 42.289062 C 82.222656 41.804688 84.285156 48.382812 79.269531 49.605469 C 74.820312 50.6875 71.757812 43.269531 71.433594 42.488281 Z M 71.4375 42.488281 " fill-opacity="1" fill-rule="evenodd"/><path fill="#ffffff" d="M 98.675781 89.414062 C 120.808594 100.542969 126.546875 65.824219 109.699219 61.453125 C 91.621094 56.769531 86.375 83.226562 98.675781 89.414062 Z M 98.675781 89.414062 " fill-opacity="1" fill-rule="evenodd"/><path fill="#ffffff" d="M 43.917969 42.597656 C 43.929688 42.175781 41.773438 36.722656 39.804688 36.703125 C 27.527344 36.578125 22.65625 35.261719 23.4375 47.484375 C 26.175781 89.847656 19.222656 102.351562 28.828125 102.746094 C 63.019531 104.148438 66.828125 101.847656 64.976562 105.191406 C 56.199219 121.042969 58.296875 122.527344 59.738281 122.480469 C 76.605469 121.878906 76.496094 122.023438 93.3125 122.28125 C 84.503906 106.59375 84.714844 105.558594 85.035156 103.984375 C 85.394531 102.21875 92.800781 103.683594 108.753906 102.90625 C 109.425781 99.628906 109.023438 99.6875 108.023438 96.464844 C 99.027344 96.289062 98.585938 96.75 91.632812 91.027344 C 90.875 90.398438 32.121094 92.09375 30.976562 91.246094 C 28.09375 89.09375 33.734375 87.960938 29.972656 46.355469 C 29.9375 45.976562 27.871094 43.101562 30.144531 42.023438 C 33.503906 40.429688 35.949219 42.292969 43.917969 42.597656 Z M 43.917969 42.597656 " fill-opacity="1" fill-rule="evenodd"/><path fill="#ffffff" d="M 55.027344 37.609375 C 55.21875 39.300781 55.40625 40.988281 55.59375 42.679688 C 69.71875 42.261719 73.097656 45.824219 74.136719 38.539062 C 74.355469 37.023438 73.390625 36.664062 55.03125 37.609375 Z M 55.027344 37.609375 " fill-opacity="1" fill-rule="evenodd"/><path fill="#ffffff" d="M 121.8125 63.164062 C 119.433594 61.5 119.398438 61.738281 117.101562 59.863281 C 112.785156 56.328125 121.542969 42.039062 110.082031 41.613281 C 86.945312 40.757812 86.988281 42.945312 85.019531 42.570312 C 100.761719 35.058594 101.039062 34.703125 118.402344 35.90625 C 123.667969 36.269531 123.203125 38.949219 121.8125 63.164062 Z M 121.8125 63.164062 " fill-opacity="1" fill-rule="evenodd"/><path fill="#c89221" d="M 54.609375 83.539062 C 62.605469 89.335938 70.292969 76.878906 62.855469 70.652344 C 58.9375 67.371094 48.171875 78.878906 54.609375 83.539062 Z M 54.609375 83.539062 " fill-opacity="1" fill-rule="evenodd"/><path fill="#c89221" d="M 81.859375 53.664062 C 90.976562 60.441406 74.523438 67.378906 72.242188 61.878906 C 69.351562 54.898438 77.5 50.425781 81.859375 53.664062 Z M 81.859375 53.664062 " fill-opacity="1" fill-rule="evenodd"/><path fill="#c89221" d="M 63.011719 18.679688 C 69.484375 0 104.351562 2.625 102.453125 27.734375 C 101.390625 41.832031 83.96875 36.210938 82.441406 43.28125 C 79.332031 57.730469 67.960938 41.175781 75.9375 34.976562 C 77.28125 33.933594 96.453125 31.421875 90.402344 19.617188 C 87.605469 14.171875 76.328125 13.851562 72.949219 20.816406 C 70.207031 26.460938 68.867188 29.476562 64.609375 24.792969 C 64.269531 24.417969 61.921875 21.835938 63.015625 18.679688 Z M 63.011719 18.679688 " fill-opacity="1" fill-rule="evenodd"/><path fill="#c89221" d="M 53.890625 30.015625 C 61.878906 44.058594 48.578125 54.714844 50.996094 59.136719 C 58.664062 73.144531 44.878906 75.945312 38.996094 65.835938 C 33.828125 56.949219 50.089844 40.824219 39.054688 35.007812 C 30.433594 30.460938 18.539062 41.371094 21.671875 49.914062 C 22.074219 51.011719 27.878906 59.375 20.457031 61.742188 C 4.550781 66.816406 6.671875 21.152344 36.871094 21.851562 C 44.640625 22.03125 51.703125 26.171875 53.890625 30.015625 Z M 53.890625 30.015625 " fill-opacity="1" fill-rule="evenodd"/><path fill="#125873" d="M 140.164062 123.125 C 130.152344 143.996094 119.570312 113.675781 118.933594 111.863281 C 116.507812 104.90625 117.492188 103.261719 111.988281 102.316406 C 109.335938 101.859375 108.597656 98.195312 105.804688 97.648438 C 103.128906 97.125 94.59375 97.578125 88.007812 86.4375 C 77.460938 68.605469 98.492188 48.261719 117.226562 59.457031 C 131.636719 68.066406 122.105469 87.277344 122.75 88.601562 C 124.519531 92.253906 124.636719 92.367188 123.457031 96.246094 C 122.503906 99.371094 129.136719 102.488281 140.164062 123.125 Z M 118.535156 71.160156 C 111.222656 50.34375 82.726562 69.296875 92.570312 82.671875 C 103.796875 97.921875 123.972656 86.644531 118.535156 71.160156 Z M 118.535156 71.160156 " fill-opacity="1" fill-rule="evenodd"/><path fill="#125873" d="M 92.027344 92.015625 C 88.304688 87.59375 87.699219 88.027344 85.65625 82.511719 C 68.375 82.914062 67.882812 81.085938 62.804688 84.257812 C 56.832031 87.988281 52.273438 81.988281 51.582031 81.832031 C 50.574219 81.601562 50.605469 82.398438 38.667969 81.035156 C 37.824219 72.425781 38.167969 72.488281 37.972656 63.851562 C 37.832031 57.542969 38.511719 57.707031 40.683594 51.847656 L 39.425781 52.25 C 39.820312 46.3125 40.128906 46.421875 39.824219 40.914062 C 35.132812 42.324219 35.007812 41.460938 30.273438 42.6875 C 28.21875 50.835938 29.121094 54.40625 29.460938 68.003906 C 29.863281 83.960938 29.535156 83.898438 30.382812 89.730469 C 35.222656 90.695312 38.878906 91.421875 92.027344 92.015625 Z M 92.027344 92.015625 " fill-opacity="1" fill-rule="evenodd"/><path fill="#242e40" d="M 109.449219 60.378906 C 107.355469 59.8125 105.238281 59.671875 103.089844 59.953125 C 100.941406 60.234375 98.929688 60.921875 97.058594 62.007812 C 96.597656 62.277344 96.152344 62.570312 95.71875 62.882812 C 95.289062 63.195312 94.875 63.527344 94.476562 63.878906 C 94.074219 64.234375 93.695312 64.605469 93.332031 64.996094 C 92.96875 65.386719 92.628906 65.792969 92.304688 66.21875 C 91.984375 66.644531 91.683594 67.082031 91.402344 67.535156 C 91.121094 67.988281 90.867188 68.457031 90.632812 68.933594 C 90.398438 69.414062 90.1875 69.902344 90 70.402344 C 89.816406 70.902344 89.65625 71.40625 89.519531 71.921875 C 89.382812 72.4375 89.269531 72.957031 89.183594 73.484375 C 89.101562 74.011719 89.039062 74.539062 89.007812 75.070312 C 88.972656 75.601562 88.964844 76.136719 88.984375 76.667969 C 89.003906 77.199219 89.046875 77.730469 89.117188 78.257812 C 89.1875 78.785156 89.28125 79.3125 89.40625 79.828125 C 89.527344 80.347656 89.671875 80.859375 89.84375 81.363281 C 90.015625 81.867188 90.210938 82.363281 90.433594 82.847656 C 90.652344 83.335938 90.894531 83.808594 91.160156 84.269531 C 91.429688 84.730469 91.714844 85.179688 92.027344 85.609375 C 92.335938 86.042969 92.667969 86.460938 93.019531 86.863281 C 93.371094 87.261719 93.738281 87.644531 94.128906 88.011719 C 94.515625 88.375 94.921875 88.71875 95.34375 89.046875 C 95.765625 89.371094 96.203125 89.675781 96.65625 89.957031 C 97.109375 90.238281 97.574219 90.496094 98.050781 90.734375 C 98.527344 90.972656 99.015625 91.183594 99.511719 91.375 C 100.011719 91.5625 100.519531 91.726562 101.03125 91.867188 C 101.546875 92.003906 102.066406 92.117188 102.59375 92.207031 C 103.117188 92.296875 103.644531 92.359375 104.175781 92.394531 C 104.710938 92.433594 105.242188 92.441406 105.773438 92.429688 C 106.308594 92.414062 106.835938 92.371094 107.367188 92.304688 C 107.894531 92.238281 108.417969 92.144531 108.9375 92.023438 C 109.457031 91.90625 109.96875 91.761719 110.476562 91.59375 C 110.980469 91.425781 111.476562 91.234375 111.964844 91.015625 C 112.449219 90.796875 112.925781 90.558594 113.386719 90.292969 C 121.183594 85.796875 123.867188 75.785156 119.367188 67.984375 C 118.285156 66.105469 116.886719 64.507812 115.167969 63.1875 C 113.449219 61.871094 111.542969 60.933594 109.449219 60.378906 Z M 111.683594 87.339844 C 110.949219 87.765625 110.179688 88.113281 109.375 88.386719 C 108.570312 88.660156 107.75 88.851562 106.90625 88.964844 C 106.066406 89.074219 105.222656 89.101562 104.375 89.046875 C 103.527344 88.992188 102.695312 88.855469 101.875 88.636719 C 101.054688 88.414062 100.265625 88.117188 99.503906 87.742188 C 98.742188 87.367188 98.027344 86.921875 97.351562 86.40625 C 96.679688 85.890625 96.0625 85.3125 95.503906 84.675781 C 94.941406 84.035156 94.449219 83.351562 94.027344 82.613281 C 93.601562 81.878906 93.253906 81.109375 92.980469 80.308594 C 92.707031 79.503906 92.515625 78.679688 92.40625 77.839844 C 92.296875 77 92.269531 76.152344 92.324219 75.308594 C 92.378906 74.460938 92.515625 73.628906 92.738281 72.808594 C 92.957031 71.988281 93.253906 71.199219 93.628906 70.4375 C 94.007812 69.675781 94.453125 68.957031 94.96875 68.285156 C 95.488281 67.613281 96.0625 66.996094 96.703125 66.4375 C 97.339844 65.878906 98.027344 65.386719 98.761719 64.964844 C 100.753906 63.808594 102.898438 63.230469 105.195312 63.230469 C 106.339844 63.230469 107.460938 63.378906 108.566406 63.675781 C 109.800781 64.003906 110.957031 64.507812 112.042969 65.183594 C 113.128906 65.855469 114.09375 66.671875 114.933594 67.632812 C 115.777344 68.59375 116.460938 69.65625 116.988281 70.820312 C 117.515625 71.984375 117.863281 73.199219 118.03125 74.464844 C 118.199219 75.730469 118.175781 76.996094 117.96875 78.257812 C 117.761719 79.515625 117.375 80.71875 116.808594 81.867188 C 116.246094 83.011719 115.523438 84.050781 114.652344 84.984375 C 113.777344 85.914062 112.789062 86.699219 111.683594 87.339844 Z M 111.683594 87.339844 " fill-opacity="1" fill-rule="nonzero"/><g clip-path="url(#ad777165e3)"><path fill="#242e40" d="M 139.414062 117.570312 L 124.90625 96.648438 C 125.75 96.011719 126.304688 95.019531 126.445312 93.863281 C 126.578125 92.605469 126.324219 91.433594 125.675781 90.34375 C 125.171875 89.519531 124.617188 88.734375 124.007812 87.984375 C 128.242188 81.234375 128.707031 72.414062 124.449219 65.042969 C 124.203125 64.621094 123.945312 64.210938 123.679688 63.808594 L 123.679688 39.789062 C 123.679688 39.429688 123.644531 39.074219 123.574219 38.722656 C 123.503906 38.371094 123.398438 38.03125 123.261719 37.699219 C 123.125 37.367188 122.957031 37.050781 122.757812 36.753906 C 122.558594 36.453125 122.332031 36.179688 122.078125 35.921875 C 121.824219 35.667969 121.546875 35.441406 121.25 35.242188 C 120.953125 35.042969 120.636719 34.875 120.304688 34.734375 C 119.976562 34.597656 119.632812 34.492188 119.28125 34.421875 C 118.929688 34.351562 118.574219 34.3125 118.214844 34.3125 L 100.808594 34.3125 C 103.3125 31.019531 104.441406 26.976562 103.957031 22.757812 C 103.191406 16.0625 98.523438 10.195312 91.15625 6.664062 C 84.683594 3.566406 71.40625 3.988281 63.453125 14.722656 C 63.238281 15.007812 63.042969 15.300781 62.863281 15.609375 C 62.683594 15.917969 62.519531 16.234375 62.378906 16.5625 C 62.234375 16.886719 62.109375 17.21875 62.003906 17.5625 C 61.898438 17.902344 61.816406 18.246094 61.75 18.597656 C 61.6875 18.949219 61.640625 19.300781 61.617188 19.65625 C 61.59375 20.011719 61.589844 20.367188 61.605469 20.722656 C 61.625 21.078125 61.660156 21.433594 61.71875 21.785156 C 61.777344 22.136719 61.855469 22.484375 61.953125 22.824219 C 62.050781 23.167969 62.167969 23.503906 62.304688 23.832031 C 62.441406 24.160156 62.597656 24.480469 62.769531 24.792969 C 62.945312 25.105469 63.136719 25.402344 63.34375 25.691406 C 63.554688 25.980469 63.777344 26.257812 64.019531 26.519531 C 64.257812 26.785156 64.511719 27.03125 64.78125 27.265625 C 65.050781 27.5 65.332031 27.714844 65.625 27.917969 C 65.921875 28.117188 66.226562 28.300781 66.539062 28.46875 C 66.855469 28.632812 67.179688 28.78125 67.511719 28.910156 C 67.722656 28.992188 67.941406 29.066406 68.152344 29.128906 L 68.203125 29.144531 L 68.207031 29.144531 L 68.339844 29.183594 C 68.480469 29.222656 68.625 29.242188 68.769531 29.246094 C 69.042969 29.273438 69.3125 29.273438 69.585938 29.246094 C 69.855469 29.21875 70.121094 29.164062 70.382812 29.082031 C 70.640625 28.996094 70.890625 28.886719 71.128906 28.753906 C 71.367188 28.617188 71.585938 28.460938 71.792969 28.28125 C 71.996094 28.097656 72.179688 27.898438 72.34375 27.679688 C 72.507812 27.460938 72.644531 27.226562 72.761719 26.980469 C 72.875 26.730469 72.960938 26.472656 73.023438 26.207031 C 73.085938 25.941406 73.117188 25.671875 73.121094 25.398438 C 73.191406 21.140625 75.21875 18.761719 79.324219 18.121094 C 85.445312 17.164062 88.621094 19.984375 89.480469 22.6875 C 90.199219 24.957031 89.625 28.304688 85.640625 30.277344 C 84.140625 31.015625 82.53125 31.386719 80.976562 31.75 C 78.792969 32.253906 76.546875 32.777344 74.746094 34.316406 L 57.066406 34.316406 C 55.570312 29.519531 52.296875 25.558594 47.734375 23.066406 C 41.617188 19.730469 33.898438 19.425781 25.996094 22.207031 C 17.871094 25.070312 4.871094 38.167969 10.121094 56.847656 C 10.292969 57.453125 10.527344 58.03125 10.820312 58.582031 C 11.117188 59.136719 11.46875 59.652344 11.875 60.128906 C 12.28125 60.605469 12.734375 61.035156 13.234375 61.414062 C 13.734375 61.792969 14.269531 62.117188 14.835938 62.378906 C 15.40625 62.644531 15.996094 62.847656 16.609375 62.984375 C 17.21875 63.121094 17.839844 63.191406 18.464844 63.195312 C 19.09375 63.199219 19.714844 63.136719 20.328125 63.007812 C 20.941406 62.875 21.535156 62.683594 22.105469 62.425781 L 22.117188 62.417969 L 22.132812 62.414062 L 22.140625 62.414062 L 22.175781 62.398438 L 22.175781 98.957031 C 22.175781 99.316406 22.210938 99.671875 22.28125 100.027344 C 22.351562 100.378906 22.457031 100.722656 22.59375 101.054688 C 22.730469 101.386719 22.898438 101.703125 23.101562 102 C 23.300781 102.300781 23.527344 102.578125 23.78125 102.832031 C 24.035156 103.085938 24.3125 103.3125 24.609375 103.511719 C 24.910156 103.710938 25.226562 103.882812 25.558594 104.019531 C 25.890625 104.15625 26.234375 104.261719 26.585938 104.332031 C 26.9375 104.402344 27.292969 104.4375 27.652344 104.4375 L 63.359375 104.4375 L 56.007812 120.648438 L 37.617188 120.648438 C 37.390625 120.648438 37.175781 120.691406 36.964844 120.777344 C 36.757812 120.867188 36.574219 120.988281 36.414062 121.148438 C 36.253906 121.308594 36.132812 121.492188 36.046875 121.703125 C 35.960938 121.910156 35.914062 122.128906 35.914062 122.351562 C 35.914062 122.578125 35.960938 122.796875 36.046875 123.003906 C 36.132812 123.214844 36.253906 123.398438 36.414062 123.558594 C 36.574219 123.71875 36.757812 123.839844 36.964844 123.929688 C 37.175781 124.015625 37.390625 124.058594 37.617188 124.058594 L 112.179688 124.058594 C 112.40625 124.058594 112.625 124.015625 112.835938 123.929688 C 113.046875 123.84375 113.230469 123.722656 113.390625 123.5625 C 113.550781 123.402344 113.675781 123.214844 113.761719 123.007812 C 113.847656 122.796875 113.890625 122.578125 113.890625 122.351562 C 113.890625 122.125 113.847656 121.910156 113.761719 121.699219 C 113.675781 121.488281 113.550781 121.304688 113.390625 121.144531 C 113.230469 120.984375 113.046875 120.863281 112.835938 120.777344 C 112.625 120.691406 112.40625 120.648438 112.179688 120.648438 L 93.785156 120.648438 L 86.4375 104.4375 L 113.597656 104.4375 L 123.996094 126.472656 C 124.257812 127.027344 124.578125 127.554688 124.949219 128.046875 C 125.320312 128.539062 125.742188 128.988281 126.207031 129.394531 C 126.671875 129.800781 127.175781 130.152344 127.714844 130.453125 C 128.253906 130.753906 128.816406 130.996094 129.40625 131.183594 C 129.996094 131.367188 130.597656 131.488281 131.210938 131.546875 C 131.828125 131.605469 132.441406 131.601562 133.054688 131.535156 C 133.667969 131.464844 134.269531 131.335938 134.855469 131.144531 C 135.441406 130.953125 136.003906 130.699219 136.539062 130.390625 C 137.074219 130.082031 137.570312 129.722656 138.03125 129.3125 C 138.488281 128.898438 138.902344 128.445312 139.269531 127.949219 C 139.632812 127.449219 139.945312 126.921875 140.199219 126.359375 C 140.457031 125.796875 140.652344 125.214844 140.789062 124.613281 C 140.921875 124.007812 140.996094 123.398438 141.003906 122.78125 C 141.011719 122.164062 140.957031 121.554688 140.839844 120.945312 C 140.71875 120.339844 140.542969 119.753906 140.300781 119.183594 C 140.0625 118.617188 139.765625 118.078125 139.414062 117.570312 Z M 121.902344 90.828125 C 122.261719 91.3125 122.578125 91.78125 122.734375 92.050781 C 122.992188 92.503906 123.117188 93.019531 123.0625 93.4375 C 123.03125 93.683594 122.941406 93.878906 122.828125 93.941406 L 115.050781 98.429688 L 113.039062 99.59375 L 111.824219 100.292969 C 111.707031 100.359375 111.496094 100.34375 111.269531 100.246094 C 110.882812 100.082031 110.496094 99.71875 110.234375 99.265625 C 110.082031 99 109.832031 98.5 109.59375 97.941406 C 111.976562 97.460938 114.222656 96.609375 116.328125 95.390625 C 118.4375 94.175781 120.292969 92.652344 121.902344 90.828125 Z M 114.625 92.433594 C 112.335938 93.761719 109.871094 94.566406 107.238281 94.847656 C 107.164062 94.851562 107.089844 94.859375 107.015625 94.871094 C 105.671875 94.996094 104.332031 94.976562 102.996094 94.816406 C 101.660156 94.65625 100.351562 94.355469 99.078125 93.914062 C 97.804688 93.472656 96.59375 92.902344 95.441406 92.203125 C 94.289062 91.503906 93.226562 90.691406 92.25 89.765625 C 92.222656 89.742188 92.199219 89.71875 92.175781 89.695312 C 91.652344 89.191406 91.160156 88.660156 90.699219 88.097656 C 90.238281 87.535156 89.808594 86.953125 89.417969 86.339844 C 89.023438 85.730469 88.667969 85.097656 88.347656 84.445312 C 88.023438 83.796875 87.742188 83.128906 87.5 82.441406 C 87.257812 81.757812 87.054688 81.0625 86.894531 80.355469 C 86.730469 79.644531 86.609375 78.929688 86.53125 78.210938 C 86.449219 77.488281 86.414062 76.761719 86.417969 76.035156 C 86.421875 75.308594 86.46875 74.585938 86.554688 73.867188 C 86.644531 73.144531 86.773438 72.429688 86.941406 71.726562 C 87.113281 71.019531 87.324219 70.324219 87.574219 69.644531 C 87.828125 68.960938 88.117188 68.296875 88.445312 67.648438 C 88.773438 67 89.136719 66.375 89.539062 65.769531 C 89.9375 65.164062 90.371094 64.582031 90.839844 64.027344 C 91.308594 63.472656 91.804688 62.945312 92.335938 62.445312 C 92.863281 61.949219 93.417969 61.484375 94.003906 61.050781 C 94.585938 60.617188 95.191406 60.21875 95.820312 59.855469 C 104.796875 54.679688 116.324219 57.765625 121.507812 66.746094 C 126.691406 75.730469 123.605469 87.253906 114.625 92.433594 Z M 42.484375 43.925781 C 42.453125 45.039062 42.253906 46.125 41.890625 47.179688 C 41.21875 49.15625 40.132812 50.894531 39.089844 52.574219 C 36.09375 57.375 32.992188 62.339844 41.175781 70.984375 C 41.527344 71.351562 41.910156 71.683594 42.324219 71.980469 C 42.742188 72.273438 43.179688 72.527344 43.644531 72.738281 C 44.109375 72.949219 44.589844 73.109375 45.085938 73.226562 C 45.582031 73.347656 46.085938 73.414062 46.59375 73.433594 C 47.105469 73.457031 47.613281 73.425781 48.117188 73.347656 C 48.621094 73.273438 49.113281 73.148438 49.589844 72.972656 C 50.070312 72.800781 50.53125 72.585938 50.96875 72.324219 C 51.40625 72.0625 51.816406 71.761719 52.195312 71.421875 L 52.558594 71.09375 C 52.9375 70.746094 53.28125 70.367188 53.585938 69.953125 C 53.890625 69.539062 54.152344 69.101562 54.375 68.632812 C 54.59375 68.167969 54.765625 67.6875 54.890625 67.1875 C 55.019531 66.691406 55.09375 66.183594 55.121094 65.671875 C 55.148438 65.15625 55.125 64.644531 55.054688 64.136719 C 54.980469 63.625 54.859375 63.128906 54.6875 62.644531 C 54.519531 62.15625 54.304688 61.695312 54.042969 61.25 C 53.785156 60.804688 53.484375 60.390625 53.140625 60.007812 C 51.261719 57.894531 51.714844 56.921875 53.601562 53.863281 C 53.988281 53.234375 54.386719 52.585938 54.785156 51.867188 C 56.21875 49.265625 57.175781 46.601562 57.636719 43.925781 L 71.308594 43.925781 C 71.316406 44.367188 71.367188 44.800781 71.457031 45.234375 C 71.546875 45.667969 71.675781 46.085938 71.84375 46.496094 C 72.011719 46.902344 72.21875 47.289062 72.460938 47.660156 C 72.703125 48.027344 72.976562 48.371094 73.28125 48.691406 C 73.589844 49.007812 73.921875 49.292969 74.28125 49.550781 C 74.640625 49.804688 75.023438 50.023438 75.425781 50.207031 C 75.828125 50.390625 76.242188 50.535156 76.671875 50.636719 C 77.097656 50.742188 77.535156 50.808594 77.972656 50.832031 C 78.085938 50.835938 78.195312 50.839844 78.304688 50.839844 C 78.738281 50.835938 79.164062 50.796875 79.589844 50.714844 C 80.015625 50.632812 80.429688 50.511719 80.832031 50.351562 C 81.234375 50.191406 81.621094 49.996094 81.984375 49.765625 C 82.351562 49.53125 82.691406 49.269531 83.007812 48.972656 C 83.328125 48.679688 83.613281 48.355469 83.867188 48.007812 C 84.125 47.65625 84.347656 47.285156 84.53125 46.894531 C 84.71875 46.503906 84.867188 46.101562 84.980469 45.683594 C 85.089844 45.261719 85.160156 44.835938 85.191406 44.40625 C 85.203125 44.234375 85.222656 44.078125 85.242188 43.925781 L 114.113281 43.925781 C 114.195312 43.921875 114.234375 43.964844 114.234375 44.046875 L 114.234375 55.851562 C 113.171875 55.378906 112.074219 54.992188 110.949219 54.691406 C 109.824219 54.390625 108.683594 54.183594 107.523438 54.0625 C 106.363281 53.941406 105.203125 53.910156 104.039062 53.972656 C 102.875 54.035156 101.726562 54.1875 100.585938 54.429688 C 99.445312 54.671875 98.332031 55.003906 97.246094 55.421875 C 96.15625 55.839844 95.109375 56.339844 94.101562 56.921875 C 93.09375 57.507812 92.136719 58.164062 91.230469 58.898438 C 90.324219 59.632812 89.484375 60.429688 88.703125 61.296875 C 87.925781 62.164062 87.21875 63.085938 86.585938 64.0625 C 85.949219 65.039062 85.394531 66.0625 84.921875 67.125 C 84.449219 68.191406 84.0625 69.285156 83.761719 70.410156 C 83.460938 71.535156 83.25 72.679688 83.125 73.835938 C 83.003906 74.996094 82.976562 76.15625 83.035156 77.320312 C 83.097656 78.484375 83.25 79.636719 83.492188 80.773438 C 83.734375 81.914062 84.0625 83.027344 84.480469 84.117188 C 84.898438 85.203125 85.398438 86.25 85.980469 87.261719 C 86.378906 87.945312 86.808594 88.609375 87.277344 89.253906 L 31.761719 89.253906 C 31.726562 89.253906 31.699219 89.242188 31.675781 89.21875 C 31.652344 89.195312 31.636719 89.167969 31.636719 89.132812 L 31.636719 44.050781 C 31.636719 44.015625 31.648438 43.988281 31.675781 43.964844 C 31.699219 43.9375 31.726562 43.925781 31.761719 43.925781 Z M 71.617188 40.511719 L 57.957031 40.511719 C 57.96875 39.578125 57.917969 38.648438 57.800781 37.722656 L 72.375 37.722656 C 72.023438 38.625 71.773438 39.554688 71.617188 40.511719 Z M 120.285156 39.789062 L 120.285156 59.816406 C 119.457031 59.054688 118.578125 58.359375 117.644531 57.730469 L 117.644531 44.050781 C 117.644531 43.582031 117.554688 43.128906 117.375 42.699219 C 117.195312 42.265625 116.941406 41.882812 116.609375 41.550781 C 116.277344 41.21875 115.894531 40.964844 115.460938 40.785156 C 115.027344 40.605469 114.578125 40.515625 114.109375 40.515625 L 92.109375 40.515625 C 93.992188 39.84375 95.734375 38.914062 97.339844 37.726562 L 118.214844 37.726562 C 118.488281 37.726562 118.753906 37.777344 119.003906 37.882812 C 119.257812 37.988281 119.480469 38.136719 119.675781 38.332031 C 119.871094 38.523438 120.019531 38.746094 120.125 39 C 120.230469 39.253906 120.28125 39.515625 120.285156 39.789062 Z M 81.742188 35.074219 C 83.40625 34.6875 85.292969 34.25 87.148438 33.335938 C 92.691406 30.589844 93.949219 25.496094 92.730469 21.65625 C 91.539062 17.898438 87.703125 14.523438 81.613281 14.523438 C 80.667969 14.527344 79.730469 14.601562 78.796875 14.75 C 73.03125 15.648438 69.800781 19.414062 69.710938 25.347656 C 69.707031 25.503906 69.648438 25.632812 69.53125 25.734375 C 69.414062 25.835938 69.277344 25.878906 69.121094 25.859375 L 68.71875 25.726562 C 68.300781 25.5625 67.90625 25.351562 67.535156 25.09375 C 67.164062 24.839844 66.824219 24.542969 66.523438 24.210938 C 66.21875 23.878906 65.957031 23.511719 65.742188 23.117188 C 65.523438 22.722656 65.351562 22.308594 65.226562 21.875 C 65.105469 21.441406 65.035156 21 65.015625 20.550781 C 64.992188 20.101562 65.023438 19.652344 65.109375 19.210938 C 65.191406 18.765625 65.324219 18.339844 65.507812 17.925781 C 65.6875 17.515625 65.914062 17.128906 66.1875 16.769531 C 73.25 7.238281 84.976562 7.492188 89.683594 9.746094 C 95.96875 12.757812 99.9375 17.644531 100.570312 23.152344 C 101.078125 27.597656 99.304688 31.804688 95.699219 34.691406 C 94.015625 36.039062 91.984375 37.0625 89.664062 37.734375 C 89.078125 37.90625 88.507812 38.039062 87.96875 38.167969 C 85.859375 38.671875 83.675781 39.195312 82.519531 41.367188 L 82.484375 41.433594 L 82.476562 41.449219 C 82.085938 42.21875 81.859375 43.109375 81.789062 44.183594 C 81.757812 44.636719 81.644531 45.070312 81.441406 45.480469 C 81.242188 45.890625 80.972656 46.246094 80.632812 46.550781 C 80.292969 46.851562 79.90625 47.082031 79.476562 47.230469 C 79.046875 47.382812 78.601562 47.449219 78.148438 47.425781 C 77.675781 47.402344 77.226562 47.289062 76.796875 47.085938 C 76.371094 46.886719 75.996094 46.613281 75.679688 46.265625 C 75.359375 45.917969 75.117188 45.519531 74.953125 45.078125 C 74.789062 44.636719 74.714844 44.179688 74.730469 43.707031 C 74.746094 43.238281 74.773438 42.796875 74.816406 42.382812 C 75.042969 39.945312 75.640625 38.25 76.648438 37.203125 C 77.816406 35.976562 79.636719 35.554688 81.742188 35.066406 Z M 16.433594 59.355469 C 15.691406 59.042969 15.058594 58.585938 14.527344 57.984375 C 13.996094 57.378906 13.621094 56.691406 13.40625 55.921875 C 8.769531 39.417969 20.054688 27.914062 27.128906 25.417969 C 34.109375 22.960938 40.84375 23.1875 46.097656 26.054688 C 50.210938 28.300781 53.058594 31.980469 54.109375 36.410156 C 54.542969 38.269531 54.660156 40.144531 54.460938 42.042969 C 54.183594 44.773438 53.289062 47.523438 51.800781 50.214844 C 51.445312 50.867188 51.066406 51.480469 50.703125 52.074219 C 48.949219 54.933594 46.953125 58.171875 50.605469 62.277344 C 52.230469 64.101562 52.085938 66.921875 50.226562 68.609375 L 49.917969 68.886719 C 49.703125 69.078125 49.472656 69.25 49.222656 69.398438 C 48.976562 69.546875 48.714844 69.667969 48.441406 69.765625 C 48.171875 69.863281 47.890625 69.9375 47.605469 69.980469 C 47.320312 70.023438 47.03125 70.039062 46.742188 70.027344 C 46.453125 70.015625 46.167969 69.976562 45.886719 69.910156 C 45.605469 69.84375 45.332031 69.753906 45.070312 69.632812 C 44.804688 69.515625 44.554688 69.371094 44.320312 69.203125 C 44.082031 69.035156 43.867188 68.847656 43.664062 68.640625 C 37.292969 61.910156 39.160156 58.914062 41.992188 54.375 C 43.089844 52.621094 44.332031 50.628906 45.128906 48.273438 C 45.859375 46.117188 46.078125 43.992188 45.785156 41.96875 C 45.347656 38.96875 43.792969 36.363281 41.398438 34.632812 L 41.363281 34.605469 L 41.347656 34.597656 C 39.410156 33.214844 37.25 32.53125 34.875 32.542969 C 32.570312 32.542969 30.195312 33.214844 27.984375 34.554688 C 25.972656 35.777344 24.132812 37.511719 22.53125 39.695312 L 22.480469 39.757812 C 17.953125 45.960938 19.773438 51.117188 22.105469 54.351562 C 22.6875 55.164062 22.863281 56.054688 22.632812 57.023438 C 22.570312 57.28125 22.480469 57.53125 22.359375 57.765625 C 22.046875 58.386719 21.585938 58.859375 20.972656 59.183594 L 20.691406 59.320312 C 20.015625 59.621094 19.304688 59.777344 18.566406 59.78125 C 17.824219 59.789062 17.113281 59.648438 16.433594 59.355469 Z M 25.585938 98.964844 L 25.585938 58.902344 C 25.945312 58.0625 26.125 57.1875 26.125 56.277344 C 26.125 55.367188 25.945312 54.492188 25.585938 53.652344 L 25.585938 41.300781 C 26.742188 39.8125 28.007812 38.613281 29.355469 37.722656 L 39.804688 37.722656 C 40.714844 38.488281 41.398438 39.417969 41.859375 40.511719 L 31.761719 40.511719 C 31.292969 40.511719 30.839844 40.601562 30.40625 40.78125 C 29.972656 40.960938 29.59375 41.21875 29.261719 41.550781 C 28.929688 41.878906 28.675781 42.261719 28.496094 42.695312 C 28.316406 43.128906 28.226562 43.582031 28.226562 44.050781 L 28.226562 89.128906 C 28.226562 89.597656 28.316406 90.050781 28.496094 90.484375 C 28.675781 90.914062 28.929688 91.296875 29.261719 91.628906 C 29.59375 91.960938 29.976562 92.214844 30.410156 92.394531 C 30.839844 92.574219 31.292969 92.664062 31.761719 92.664062 L 90.347656 92.664062 C 92.992188 95.046875 96.035156 96.695312 99.476562 97.605469 C 101.375 98.117188 103.304688 98.375 105.269531 98.375 C 105.539062 98.375 105.808594 98.367188 106.078125 98.359375 C 106.421875 99.257812 106.824219 100.128906 107.285156 100.972656 C 107.296875 100.992188 107.308594 101.007812 107.320312 101.027344 L 27.652344 101.027344 C 27.378906 101.027344 27.117188 100.972656 26.863281 100.867188 C 26.609375 100.761719 26.386719 100.613281 26.191406 100.417969 C 26 100.226562 25.847656 100.003906 25.746094 99.75 C 25.640625 99.496094 25.585938 99.230469 25.585938 98.957031 Z M 90.039062 120.652344 L 59.757812 120.652344 L 67.109375 104.445312 L 82.691406 104.445312 Z M 137.457031 123.871094 C 137.332031 124.429688 137.125 124.960938 136.832031 125.457031 C 136.542969 125.953125 136.183594 126.390625 135.753906 126.773438 C 135.324219 127.15625 134.847656 127.464844 134.324219 127.699219 C 133.796875 127.933594 133.25 128.085938 132.679688 128.148438 C 132.109375 128.210938 131.539062 128.183594 130.976562 128.070312 C 130.414062 127.957031 129.878906 127.761719 129.378906 127.480469 C 128.878906 127.199219 128.429688 126.847656 128.039062 126.429688 C 127.644531 126.007812 127.324219 125.539062 127.082031 125.019531 L 116.105469 101.761719 L 121.960938 98.378906 L 136.609375 119.511719 C 137.046875 120.144531 137.339844 120.84375 137.488281 121.601562 C 137.636719 122.355469 137.625 123.113281 137.457031 123.863281 Z M 137.457031 123.871094 " fill-opacity="1" fill-rule="nonzero"/></g><path fill="#242e40" d="M 58.3125 87.292969 C 58.507812 87.292969 58.707031 87.285156 58.90625 87.273438 C 64.894531 86.863281 67.109375 83.390625 67.902344 81.359375 C 69.230469 77.925781 68.417969 73.582031 65.96875 71.027344 C 64.109375 69.085938 61.609375 68.457031 59.105469 69.308594 C 52.117188 71.671875 49.816406 76.863281 50.636719 80.957031 C 51.386719 84.753906 54.503906 87.292969 58.3125 87.292969 Z M 60.195312 72.539062 C 60.546875 72.414062 60.90625 72.351562 61.277344 72.347656 C 62.09375 72.347656 62.839844 72.695312 63.5 73.386719 C 65.054688 75.007812 65.574219 77.90625 64.714844 80.125 C 63.855469 82.347656 61.757812 83.65625 58.671875 83.867188 C 55.953125 84.058594 54.355469 82.203125 53.972656 80.289062 C 53.484375 77.851562 54.824219 74.359375 60.195312 72.539062 Z M 60.195312 72.539062 " fill-opacity="1" fill-rule="nonzero"/><path fill="#242e40" d="M 72.246094 63.769531 C 74.425781 65.671875 76.476562 66.242188 78.148438 66.242188 C 79.207031 66.238281 80.21875 66.023438 81.1875 65.597656 C 84.085938 64.316406 86.15625 61.285156 86.222656 58.234375 C 86.273438 55.914062 85.125 54 83.078125 52.988281 C 77.503906 50.238281 73.023438 51.980469 71.058594 54.933594 C 69.117188 57.839844 69.605469 61.472656 72.246094 63.769531 Z M 73.890625 56.824219 C 74.550781 55.839844 75.828125 55.015625 77.660156 55.015625 C 78.765625 55.015625 80.070312 55.3125 81.5625 56.046875 C 82.417969 56.472656 82.824219 57.164062 82.804688 58.160156 C 82.769531 59.878906 81.476562 61.734375 79.800781 62.476562 C 78.125 63.21875 76.289062 62.773438 74.480469 61.199219 C 72.953125 59.863281 73.082031 58.039062 73.890625 56.824219 Z M 73.890625 56.824219 " fill-opacity="1" fill-rule="nonzero"/></svg>