<svg xmlns="http://www.w3.org/2000/svg" xmlns:xlink="http://www.w3.org/1999/xlink" width="192" zoomAndPan="magnify" viewBox="0 0 144 143.999998" height="192" preserveAspectRatio="xMidYMid meet" version="1.0"><defs><clipPath id="71fae5089a"><path d="M 0 4.140625 L 144 4.140625 L 144 139.890625 L 0 139.890625 Z M 0 4.140625 " clip-rule="nonzero"/></clipPath></defs><path fill="#c89221" d="M 48.957031 6.308594 L 132.179688 6.308594 C 137.476562 6.308594 141.824219 10.652344 141.824219 15.960938 L 141.824219 127.894531 C 141.824219 133.203125 137.476562 137.539062 132.179688 137.539062 L 48.957031 137.539062 C 43.648438 137.539062 39.304688 133.203125 39.304688 127.894531 L 39.304688 15.960938 C 39.308594 10.652344 43.652344 6.308594 48.957031 6.308594 Z M 48.957031 6.308594 " fill-opacity="1" fill-rule="evenodd"/><path fill="#ffffff" d="M 61.308594 6.308594 L 132.179688 6.308594 C 137.476562 6.308594 141.824219 10.652344 141.824219 15.960938 L 141.824219 125.757812 C 140.640625 125.8125 139.457031 125.84375 138.257812 125.84375 C 95.792969 125.84375 58.382812 89.941406 54.703125 45.644531 C 53.511719 31.351562 55.992188 17.929688 61.308594 6.308594 Z M 61.308594 6.308594 " fill-opacity="1" fill-rule="evenodd"/><path fill="#125873" d="M 68.445312 83.976562 L 80.4375 95.320312 L 53.003906 124.339844 C 49.898438 127.644531 44.640625 127.792969 41.347656 124.671875 C 38.042969 121.554688 37.894531 116.300781 41.011719 113.003906 Z M 68.445312 83.976562 " fill-opacity="1" fill-rule="evenodd"/><path fill="#c89221" d="M 80.097656 95.679688 L 53.003906 124.339844 C 50.800781 126.679688 47.503906 127.433594 44.605469 126.566406 C 44 123.945312 44.667969 121.089844 46.640625 119.007812 L 74.074219 89.976562 Z M 80.097656 95.679688 " fill-opacity="1" fill-rule="evenodd"/><path fill="#125873" d="M 120.265625 41.160156 C 134.683594 54.792969 135.324219 77.523438 121.703125 91.9375 C 108.074219 106.355469 85.34375 106.996094 70.929688 93.363281 C 56.507812 79.746094 55.871094 57.003906 69.5 42.59375 C 83.128906 28.179688 105.859375 27.539062 120.265625 41.160156 Z M 120.265625 41.160156 " fill-opacity="1" fill-rule="evenodd"/><path fill="#c89221" d="M 131.023438 61.359375 C 132.800781 72.0625 129.726562 83.441406 121.703125 91.9375 C 108.074219 106.355469 85.34375 106.996094 70.929688 93.363281 C 68.28125 90.867188 66.101562 88.054688 64.386719 85.054688 C 62.617188 74.347656 65.683594 62.960938 73.714844 54.472656 C 87.34375 40.054688 110.074219 39.414062 124.492188 53.035156 C 127.136719 55.542969 129.3125 58.34375 131.023438 61.359375 Z M 131.023438 61.359375 " fill-opacity="1" fill-rule="evenodd"/><path fill="#ffffff" d="M 112.8125 49.0625 C 122.867188 58.566406 123.316406 74.421875 113.8125 84.476562 C 104.300781 94.53125 88.445312 94.976562 78.390625 85.472656 C 68.335938 75.96875 67.886719 60.117188 77.390625 50.050781 C 86.894531 39.996094 102.757812 39.550781 112.8125 49.0625 Z M 112.8125 49.0625 " fill-opacity="1" fill-rule="evenodd"/><path fill="#125873" d="M 95.382812 52.898438 C 103.210938 52.679688 109.746094 58.855469 109.96875 66.6875 C 110.1875 74.523438 104.011719 81.050781 96.179688 81.28125 C 88.339844 81.5 81.8125 75.324219 81.59375 67.492188 C 81.367188 59.652344 87.542969 53.125 95.382812 52.898438 Z M 95.382812 52.898438 " fill-opacity="1" fill-rule="evenodd"/><path fill="#c89221" d="M 106.621094 57.933594 C 108.625 60.296875 109.871094 63.339844 109.96875 66.6875 C 110.1875 74.523438 104.011719 81.050781 96.179688 81.28125 C 95.085938 81.304688 94.015625 81.207031 92.980469 81.007812 C 90.976562 78.636719 89.730469 75.59375 89.644531 72.246094 C 89.414062 64.417969 95.59375 57.882812 103.433594 57.664062 C 104.527344 57.628906 105.59375 57.722656 106.621094 57.933594 Z M 106.621094 57.933594 " fill-opacity="1" fill-rule="evenodd"/><path fill="#c89221" d="M 56.035156 128.191406 C 59.25 131.40625 52.8125 137.003906 49.511719 134.007812 C 49.082031 133.648438 47.566406 132.265625 47.148438 131.941406 C 49.003906 135.023438 43.125 139.84375 38.78125 135.496094 C 30.257812 126.964844 28.769531 125.03125 20.320312 116.726562 L 12.71875 111.234375 L 20.601562 86.699219 L 57.863281 95.179688 L 53.265625 100.050781 L 68.542969 116.453125 C 71.269531 119.171875 65.449219 125.308594 62.191406 122.050781 C 65.441406 125.308594 59.292969 131.460938 56.035156 128.191406 Z M 56.035156 128.191406 " fill-opacity="1" fill-rule="evenodd"/><path fill="#ffffff" d="M 19.976562 88.644531 L 20.597656 86.699219 L 57.859375 95.179688 L 53.261719 100.050781 L 68.539062 116.453125 C 68.558594 116.480469 68.582031 116.507812 68.601562 116.523438 C 60.523438 117.558594 49.648438 114.703125 39.207031 108.109375 C 30.460938 102.589844 23.722656 95.523438 19.976562 88.644531 Z M 19.976562 88.644531 " fill-opacity="1" fill-rule="evenodd"/><path fill="#125873" d="M 15.632812 81.21875 L 23.277344 83.898438 C 24.644531 84.378906 25.371094 85.882812 24.898438 87.261719 L 15.550781 113.933594 C 15.070312 115.296875 13.554688 116.035156 12.1875 115.550781 L 4.542969 112.871094 C 3.167969 112.390625 2.441406 110.875 2.921875 109.507812 L 12.269531 82.835938 C 12.75 81.460938 14.261719 80.734375 15.632812 81.21875 Z M 15.632812 81.21875 " fill-opacity="1" fill-rule="evenodd"/><path fill="#c89221" d="M 15.632812 81.21875 L 23.277344 83.898438 C 24.644531 84.378906 25.371094 85.882812 24.898438 87.261719 L 20.28125 100.433594 C 15.273438 99.460938 11.128906 96.308594 9.035156 92.078125 L 12.265625 82.835938 C 12.75 81.460938 14.261719 80.734375 15.632812 81.21875 Z M 15.632812 81.21875 " fill-opacity="1" fill-rule="evenodd"/><g clip-path="url(#71fae5089a)"><path fill="#125873" d="M 16.339844 79.183594 L 23.988281 81.859375 C 25.800781 82.496094 27.027344 84.136719 27.183594 85.984375 L 37.144531 88.25 L 37.144531 15.960938 C 37.144531 9.460938 42.460938 4.144531 48.960938 4.144531 L 132.183594 4.144531 C 138.679688 4.144531 143.988281 9.460938 143.988281 15.960938 L 143.988281 127.894531 C 143.988281 134.390625 138.679688 139.699219 132.183594 139.699219 L 48.957031 139.699219 C 48.109375 139.699219 47.265625 139.613281 46.460938 139.4375 C 44.097656 138.921875 45.847656 138.882812 44.101562 139.238281 C 41.914062 139.691406 39.414062 139.195312 37.253906 137.03125 C 33.570312 133.34375 31.03125 130.714844 28.648438 128.234375 C 25.933594 125.414062 23.421875 122.808594 18.910156 118.371094 L 16.359375 116.535156 C 15.070312 117.742188 13.199219 118.191406 11.472656 117.585938 L 3.824219 114.90625 C 1.335938 114.039062 0.00390625 111.289062 0.882812 108.800781 L 10.230469 82.121094 C 11.121094 79.605469 13.964844 78.292969 16.339844 79.183594 Z M 26.160156 90.175781 L 18.292969 112.609375 L 21.828125 115.183594 C 30.597656 123.8125 31.746094 125.398438 40.3125 133.960938 C 42.140625 135.792969 44.425781 135.054688 45.191406 133.671875 C 45.285156 133.496094 45.339844 133.324219 45.339844 133.191406 L 37.9375 126.113281 C 37.078125 125.292969 37.054688 123.921875 37.875 123.066406 C 38.707031 122.207031 40.066406 122.183594 40.921875 123.003906 L 48.550781 130.300781 C 48.9375 130.605469 49.59375 131.195312 50.148438 131.683594 L 50.136719 131.695312 C 51.03125 132.464844 51.453125 133.15625 52.96875 132.375 C 53.871094 131.914062 55.28125 130.5 54.527344 129.730469 L 46.828125 122.363281 C 45.96875 121.542969 45.945312 120.175781 46.765625 119.320312 C 47.589844 118.460938 48.957031 118.433594 49.8125 119.257812 L 57.53125 126.640625 C 58.851562 127.910156 61.855469 124.765625 60.648438 123.578125 C 60.621094 123.550781 60.59375 123.523438 60.574219 123.496094 L 52.914062 116.164062 C 52.054688 115.339844 52.027344 113.972656 52.851562 113.117188 C 53.683594 112.257812 55.050781 112.234375 55.90625 113.054688 L 63.554688 120.386719 C 64.035156 120.816406 64.4375 120.992188 65.253906 120.574219 C 66.128906 120.109375 67.511719 118.535156 66.945312 117.929688 L 51.667969 101.523438 C 50.898438 100.691406 50.902344 99.402344 51.675781 98.570312 L 53.691406 96.453125 Z M 22.570312 85.929688 L 14.921875 83.25 C 14.675781 83.171875 14.394531 83.292969 14.308594 83.546875 L 4.960938 110.21875 C 4.875 110.460938 4.996094 110.742188 5.25 110.828125 L 12.898438 113.507812 C 13.144531 113.59375 13.425781 113.476562 13.511719 113.21875 L 22.71875 86.960938 C 22.8125 86.679688 23.09375 86.113281 22.570312 85.929688 Z M 41.46875 89.238281 L 57.128906 92.804688 L 62.867188 86.738281 C 54.285156 72.320312 56.097656 53.636719 67.929688 41.117188 C 82.367188 25.839844 106.46875 25.148438 121.746094 39.59375 C 137.03125 54.039062 137.714844 78.132812 123.269531 93.421875 C 111.433594 105.9375 92.886719 108.804688 78.003906 101.039062 L 67.484375 112.164062 L 70.121094 115 C 73.546875 118.601562 69.597656 124.363281 65.21875 125.09375 C 64.734375 128.097656 61.996094 130.8125 58.980469 131.242188 C 58.632812 132.878906 57.578125 134.34375 56.25 135.378906 L 132.183594 135.378906 C 136.292969 135.378906 139.664062 132.007812 139.664062 127.894531 L 139.664062 15.960938 C 139.664062 11.84375 136.292969 8.46875 132.183594 8.46875 L 48.957031 8.46875 C 44.839844 8.46875 41.46875 11.839844 41.46875 15.960938 Z M 56.21875 100.058594 L 64.539062 109 L 74.210938 98.769531 C 70.839844 96.472656 67.832031 93.636719 65.351562 90.394531 Z M 89.042969 69.671875 C 88.359375 68.699219 88.585938 67.351562 89.566406 66.671875 C 90.539062 65.988281 91.886719 66.214844 92.570312 67.195312 L 93.710938 68.800781 L 100.796875 61.304688 C 101.613281 60.429688 102.976562 60.390625 103.84375 61.207031 C 104.710938 62.023438 104.753906 63.386719 103.9375 64.253906 C 102.898438 65.355469 95.136719 73.660156 94.707031 73.96875 C 93.726562 74.652344 92.386719 74.417969 91.691406 73.445312 Z M 95.320312 50.742188 C 104.351562 50.492188 111.867188 57.605469 112.121094 66.632812 C 112.375 75.664062 105.261719 83.179688 96.242188 83.433594 C 87.210938 83.6875 79.695312 76.574219 79.441406 67.542969 C 79.1875 58.511719 86.292969 50.996094 95.320312 50.742188 Z M 104.042969 58.34375 C 99.21875 53.773438 91.605469 53.984375 87.03125 58.820312 C 82.46875 63.644531 82.671875 71.265625 87.503906 75.828125 C 92.339844 80.402344 99.953125 80.191406 104.515625 75.355469 C 109.089844 70.53125 108.878906 62.910156 104.042969 58.34375 Z M 114.292969 47.484375 L 114.40625 47.597656 C 119.792969 52.75 122.605469 59.589844 122.800781 66.5 C 123.21875 81.515625 111.378906 94.039062 96.363281 94.46875 C 81.351562 94.886719 68.828125 83.039062 68.40625 68.03125 C 68.207031 61.085938 70.683594 53.9375 75.867188 48.527344 L 75.941406 48.453125 C 81.089844 43.070312 87.921875 40.257812 94.839844 40.0625 C 101.792969 39.875 108.835938 42.328125 114.292969 47.484375 Z M 118.488281 66.625 C 118.324219 60.808594 115.960938 55.050781 111.417969 50.714844 C 111.375 50.671875 111.324219 50.628906 111.28125 50.582031 C 106.691406 46.265625 100.785156 44.207031 94.953125 44.371094 C 89.136719 44.539062 83.378906 46.902344 79.054688 51.441406 C 79.011719 51.484375 78.96875 51.539062 78.925781 51.582031 L 78.914062 51.582031 C 70.269531 60.777344 70.691406 75.222656 79.871094 83.902344 C 89.058594 92.59375 103.546875 92.191406 112.234375 82.992188 C 116.589844 78.398438 118.65625 72.476562 118.488281 66.625 Z M 129.351562 66.316406 C 128.824219 47.699219 113.261719 32.996094 94.648438 33.523438 C 76.03125 34.039062 61.328125 49.605469 61.851562 68.21875 C 62.378906 86.761719 77.835938 101.539062 96.554688 101.011719 C 115.167969 100.488281 129.875 84.933594 129.351562 66.316406 Z M 126.300781 124.609375 C 127.5 124.609375 128.464844 125.582031 128.464844 126.773438 C 128.464844 127.960938 127.5 128.933594 126.300781 128.933594 L 101.484375 128.933594 C 100.292969 128.933594 99.320312 127.960938 99.320312 126.773438 C 99.320312 125.582031 100.296875 124.609375 101.484375 124.609375 Z M 92.027344 124.609375 C 93.214844 124.609375 94.191406 125.582031 94.191406 126.773438 C 94.191406 127.960938 93.214844 128.933594 92.027344 128.933594 L 81.722656 128.933594 C 80.53125 128.933594 79.5625 127.960938 79.5625 126.773438 C 79.5625 125.582031 80.535156 124.609375 81.722656 124.609375 Z M 81.726562 117.71875 C 80.535156 117.71875 79.5625 116.753906 79.5625 115.554688 C 79.5625 114.363281 80.539062 113.390625 81.726562 113.390625 L 106.542969 113.390625 C 107.742188 113.390625 108.707031 114.363281 108.707031 115.554688 C 108.707031 116.753906 107.742188 117.71875 106.542969 117.71875 Z M 116.011719 117.71875 C 114.8125 117.71875 113.847656 116.753906 113.847656 115.554688 C 113.847656 114.363281 114.8125 113.390625 116.011719 113.390625 L 126.304688 113.390625 C 127.503906 113.390625 128.46875 114.363281 128.46875 115.554688 C 128.46875 116.753906 127.503906 117.71875 126.304688 117.71875 Z M 52.628906 32.113281 C 51.429688 32.113281 50.464844 31.140625 50.464844 29.949219 C 50.464844 28.761719 51.429688 27.789062 52.628906 27.789062 L 63.445312 27.789062 C 64.636719 27.789062 65.609375 28.761719 65.609375 29.949219 C 65.609375 31.144531 64.636719 32.113281 63.445312 32.113281 Z M 52.628906 21.136719 C 51.429688 21.136719 50.464844 20.164062 50.464844 18.976562 C 50.464844 17.785156 51.429688 16.8125 52.628906 16.8125 L 72.554688 16.8125 C 73.746094 16.8125 74.71875 17.785156 74.71875 18.976562 C 74.71875 20.164062 73.746094 21.136719 72.554688 21.136719 Z M 52.628906 21.136719 " fill-opacity="1" fill-rule="nonzero"/></g></svg>