<svg xmlns="http://www.w3.org/2000/svg" xmlns:xlink="http://www.w3.org/1999/xlink" width="192" zoomAndPan="magnify" viewBox="0 0 144 143.999998" height="192" preserveAspectRatio="xMidYMid meet" version="1.0"><defs><clipPath id="0f6e27625c"><path d="M 6.210938 0 L 136 0 L 136 139 L 6.210938 139 Z M 6.210938 0 " clip-rule="nonzero"/></clipPath></defs><path fill="#125772" d="M 69.375 67.667969 C 86.035156 54.054688 110.574219 56.519531 124.183594 73.175781 C 137.796875 89.835938 135.324219 114.375 118.667969 127.988281 C 102.007812 141.601562 77.46875 139.125 63.855469 122.476562 C 50.242188 105.816406 52.714844 81.277344 69.375 67.667969 Z M 69.375 67.667969 " fill-opacity="1" fill-rule="evenodd"/><path fill="#c89221" d="M 71.441406 66.085938 C 88.003906 54.277344 111.125 57.195312 124.1875 73.175781 C 134.972656 86.375 135.660156 104.515625 127.203125 118.253906 C 110.636719 130.058594 87.515625 127.140625 74.453125 111.160156 C 63.679688 97.964844 62.984375 79.820312 71.441406 66.085938 Z M 71.441406 66.085938 " fill-opacity="1" fill-rule="evenodd"/><path fill="#c89221" d="M 55.078125 97.140625 C 55.210938 89.75 57.441406 82.429688 61.664062 76.128906 C 63.773438 78.828125 64.726562 82.402344 62.832031 86.042969 C 60.742188 90.027344 65.632812 91.839844 67.65625 90.757812 C 77.199219 85.613281 80.429688 101.640625 77 104.894531 C 71.683594 109.914062 71.542969 95.09375 55.078125 97.140625 Z M 55.078125 97.140625 " fill-opacity="1" fill-rule="evenodd"/><path fill="#c89221" d="M 126.066406 119.992188 C 124.035156 122.929688 121.574219 125.621094 118.667969 127.992188 C 103.644531 140.273438 82.191406 139.460938 68.148438 126.949219 C 71.976562 126.101562 70.636719 118.542969 72.144531 113.894531 C 73.675781 109.160156 81.027344 120.429688 81.949219 119.726562 C 86.96875 115.933594 90 117.875 95.917969 113.703125 C 100.4375 110.519531 95.679688 100.519531 105.835938 103.890625 C 109.003906 104.941406 118.402344 108.921875 125.933594 119.875 C 125.964844 119.921875 126.015625 119.945312 126.066406 119.992188 Z M 126.066406 119.992188 " fill-opacity="1" fill-rule="evenodd"/><path fill="#c89221" d="M 45.425781 4.921875 C 36.894531 14.929688 25.179688 22.054688 8.824219 24.964844 L 21.824219 48.710938 C 36.554688 46.644531 48.855469 40.152344 58.429688 28.664062 Z M 45.425781 4.921875 " fill-opacity="1" fill-rule="evenodd"/><path fill="#c89221" d="M 43.367188 7.214844 C 35.03125 16.019531 23.898438 22.285156 8.824219 24.964844 L 20.683594 46.628906 C 25.160156 42.84375 29.671875 37.691406 33.632812 31.558594 C 39.144531 23.019531 42.492188 14.277344 43.367188 7.214844 Z M 43.367188 7.214844 " fill-opacity="1" fill-rule="evenodd"/><path fill="#125772" d="M 68.65625 50.929688 L 43.53125 5.03125 L 48.457031 2.398438 L 73.582031 48.289062 Z M 68.65625 50.929688 " fill-opacity="1" fill-rule="evenodd"/><path fill="#125772" d="M 113.714844 90.699219 C 116.992188 91.792969 120.554688 89.371094 120.554688 85.765625 L 120.554688 65.082031 C 120.554688 62.222656 118.210938 59.878906 115.347656 59.878906 C 106.808594 59.878906 98.199219 59.691406 89.617188 59.691406 L 74.574219 44.652344 C 72.550781 42.628906 69.238281 42.628906 67.21875 44.652344 C 65.195312 46.671875 65.195312 49.984375 67.21875 52.015625 L 86.914062 71.621094 C 86.914062 86.449219 86.90625 101.285156 86.90625 116.113281 C 86.90625 120.335938 89.929688 123.792969 93.609375 123.792969 C 97.292969 123.792969 100.316406 120.335938 100.316406 116.113281 C 100.316406 120.335938 103.328125 123.792969 107.011719 123.792969 C 110.703125 123.792969 113.714844 120.335938 113.714844 116.113281 C 113.714844 106.585938 113.714844 100.222656 113.714844 90.699219 Z M 113.714844 90.699219 " fill-opacity="1" fill-rule="evenodd"/><path fill="#c89221" d="M 113.714844 90.699219 C 116.992188 91.792969 120.554688 89.371094 120.554688 85.765625 L 120.554688 65.082031 C 120.554688 62.222656 118.210938 59.878906 115.347656 59.878906 C 106.808594 59.878906 98.199219 59.691406 89.617188 59.691406 L 74.574219 44.652344 C 74.277344 44.355469 73.945312 44.101562 73.601562 43.890625 C 73.253906 44.101562 72.921875 44.355469 72.617188 44.652344 C 70.59375 46.671875 70.59375 49.984375 72.617188 52.015625 L 92.304688 71.621094 C 92.304688 86.449219 92.304688 101.285156 92.304688 116.113281 C 92.304688 117.460938 92.289062 120.347656 92.375 123.664062 C 92.773438 123.746094 93.1875 123.792969 93.609375 123.792969 C 97.292969 123.792969 100.316406 120.335938 100.316406 116.113281 C 100.316406 120.335938 103.328125 123.792969 107.011719 123.792969 C 110.703125 123.792969 113.714844 120.335938 113.714844 116.113281 C 113.714844 106.585938 113.714844 100.222656 113.714844 90.699219 Z M 113.714844 90.699219 " fill-opacity="1" fill-rule="evenodd"/><path fill="#c89221" d="M 101.28125 35.574219 C 107.992188 35.574219 113.429688 41.011719 113.429688 47.722656 C 113.429688 54.429688 107.992188 59.863281 101.28125 59.863281 C 94.574219 59.863281 89.132812 54.429688 89.132812 47.722656 C 89.132812 41.007812 94.574219 35.574219 101.28125 35.574219 Z M 101.28125 35.574219 " fill-opacity="1" fill-rule="evenodd"/><path fill="#c89221" d="M 101.28125 35.574219 C 107.992188 35.574219 113.429688 41.011719 113.429688 47.722656 C 113.429688 50.929688 112.183594 53.84375 110.152344 56.019531 C 108.722656 56.613281 107.15625 56.933594 105.515625 56.933594 C 98.808594 56.933594 93.375 51.5 93.375 44.785156 C 93.375 41.578125 94.621094 38.667969 96.652344 36.488281 C 98.082031 35.894531 99.636719 35.574219 101.28125 35.574219 Z M 101.28125 35.574219 " fill-opacity="1" fill-rule="evenodd"/><g clip-path="url(#0f6e27625c)"><path fill="#125873" d="M 101.28125 33.480469 C 109.144531 33.480469 115.519531 39.855469 115.519531 47.722656 C 115.519531 51.648438 113.925781 55.203125 111.351562 57.777344 C 112.613281 57.789062 113.941406 57.789062 115.347656 57.789062 C 119.367188 57.789062 122.644531 61.0625 122.644531 65.082031 L 122.644531 68.410156 C 131.734375 77.332031 136.09375 89.609375 134.851562 101.933594 C 133.820312 112.199219 128.992188 121.648438 121.316406 128.472656 C 103.851562 143.980469 77.023438 141.878906 62.246094 123.789062 C 47.703125 105.996094 50.75 80.183594 68.058594 66.046875 C 69.964844 64.488281 72.039062 63.085938 74.1875 61.890625 L 65.738281 53.484375 C 62.644531 50.386719 63.84375 46.5 63.84375 46.484375 L 56.792969 33.59375 C 47.328125 43.335938 35.621094 48.878906 22.109375 50.777344 C 21.269531 50.886719 20.414062 50.488281 19.992188 49.710938 L 7.074219 26.109375 C 6.21875 24.6875 7.082031 23.15625 8.460938 22.910156 C 21.660156 20.582031 32.875 15.164062 41.667969 5.972656 C 41.160156 4.972656 41.542969 3.746094 42.53125 3.203125 L 47.46875 0.5625 C 48.484375 0.0234375 49.738281 0.402344 50.28125 1.402344 L 72.027344 41.140625 C 73.5 41.367188 74.917969 42.042969 76.046875 43.179688 L 90.476562 57.601562 L 91.027344 57.601562 C 85.632812 52.015625 85.722656 43.144531 91.207031 37.660156 C 93.796875 35.074219 97.351562 33.480469 101.28125 33.480469 Z M 102.847656 61.867188 C 102.339844 61.925781 101.816406 61.949219 101.28125 61.949219 C 100.648438 61.949219 100.027344 61.917969 99.414062 61.832031 C 97.804688 61.8125 96.207031 61.796875 94.613281 61.789062 C 93.683594 61.78125 92.140625 61.78125 89.621094 61.78125 C 89.035156 61.78125 88.511719 61.535156 88.132812 61.152344 L 73.105469 46.128906 C 71.1875 44.210938 67.800781 45.519531 67.800781 48.332031 C 67.800781 49.292969 68.15625 49.941406 68.808594 50.640625 L 79.117188 60.902344 C 79.160156 60.945312 79.210938 60.988281 79.253906 61.039062 L 88.386719 70.136719 C 88.828125 70.570312 89.03125 71.144531 89.007812 71.710938 L 89.007812 116.109375 L 89.015625 116.109375 C 89.015625 120.945312 93.824219 123.558594 96.785156 120.167969 C 97.566406 119.277344 98.082031 118.078125 98.207031 116.730469 L 98.207031 91.859375 C 98.207031 90.699219 99.140625 89.769531 100.296875 89.769531 C 101.449219 89.769531 102.386719 90.699219 102.386719 91.859375 L 102.386719 116.109375 L 102.410156 116.109375 C 102.410156 120.945312 107.21875 123.558594 110.183594 120.167969 C 111.078125 119.140625 111.628906 117.710938 111.628906 116.109375 L 111.628906 73.726562 C 111.628906 72.574219 112.570312 71.636719 113.722656 71.636719 C 114.878906 71.636719 115.8125 72.578125 115.8125 73.726562 L 115.8125 88.835938 C 117.3125 88.605469 118.46875 87.363281 118.46875 85.765625 L 118.46875 65.082031 C 118.46875 63.371094 117.0625 61.96875 115.355469 61.96875 C 111.910156 61.96875 107.394531 61.917969 102.847656 61.867188 Z M 108.390625 40.609375 C 104.472656 36.683594 98.097656 36.683594 94.167969 40.609375 C 90.25 44.539062 90.25 50.90625 94.167969 54.832031 C 98.085938 58.742188 104.480469 58.742188 108.390625 54.832031 C 112.320312 50.90625 112.320312 44.539062 108.390625 40.609375 Z M 122.648438 74.582031 L 122.648438 85.765625 C 122.648438 89.632812 119.601562 92.792969 115.808594 93.039062 L 115.808594 106.703125 C 119.507812 109.265625 122.9375 112.492188 125.921875 116.335938 C 133.480469 103.296875 132.441406 86.652344 122.648438 74.582031 Z M 115.804688 111.914062 L 115.804688 116.109375 C 115.804688 121.214844 112.082031 125.878906 107.019531 125.878906 C 104.320312 125.878906 101.925781 124.523438 100.316406 122.417969 C 96.046875 128.015625 88.125 126.566406 85.546875 119.980469 C 84.800781 120.320312 84.0625 120.753906 83.210938 121.394531 C 81.390625 122.773438 79.753906 121.003906 77.714844 118.796875 C 76.480469 117.457031 74.996094 115.851562 73.957031 115.136719 C 73.050781 118.75 73.574219 124.203125 71.558594 127.054688 C 87.855469 139.621094 111.1875 136.273438 123.488281 120.015625 C 121.21875 116.910156 118.625 114.191406 115.804688 111.914062 Z M 84.832031 115.765625 L 84.832031 72.484375 L 77.277344 64.96875 C 72.125 67.59375 67.585938 71.476562 64.191406 76.140625 C 66.242188 79.46875 66.597656 83.332031 64.675781 87.011719 C 64.339844 87.664062 64.269531 88.097656 64.71875 88.46875 C 65.191406 88.875 66.257812 89.136719 66.664062 88.925781 C 73.613281 85.175781 78.558594 90.246094 80 96.6875 C 80.855469 100.523438 80.320312 104.636719 78.433594 106.414062 C 74.640625 109.996094 72.753906 107.945312 69.859375 104.800781 C 67.578125 102.316406 64.304688 98.761719 57.179688 99.066406 C 57.484375 108.398438 61.324219 117.464844 68.34375 124.285156 C 69.277344 122.398438 69.054688 116.675781 70.164062 113.261719 C 70.976562 110.730469 72.59375 110.199219 74.613281 110.847656 C 76.671875 111.519531 78.957031 113.992188 80.785156 115.972656 C 81.394531 116.628906 79.507812 118.964844 80.691406 118.0625 C 82.058594 117.023438 83.402344 116.300781 84.832031 115.765625 Z M 66.449219 42.558594 C 66.828125 42.261719 67.234375 42.007812 67.65625 41.804688 L 47.617188 5.210938 L 46.375 5.878906 Z M 54.695312 29.757812 L 43.765625 9.796875 C 35.140625 18.429688 24.472656 23.800781 12.019531 26.464844 L 22.953125 46.433594 C 35.4375 44.414062 46.078125 39.027344 54.695312 29.757812 Z M 58.851562 86.765625 C 58.023438 89.414062 57.496094 92.132812 57.28125 94.867188 C 66.09375 94.542969 70.121094 98.921875 72.921875 101.96875 C 74.089844 103.226562 74.851562 104.058594 75.570312 103.375 C 77.144531 101.894531 76.121094 93.980469 72.648438 92.183594 C 71.652344 91.667969 70.320312 91.695312 68.636719 92.601562 C 64.820312 94.65625 57.9375 90.925781 60.984375 85.082031 C 61.8125 83.5 61.945312 81.910156 61.539062 80.375 C 60.445312 82.417969 59.546875 84.5625 58.851562 86.765625 Z M 58.851562 86.765625 " fill-opacity="1" fill-rule="nonzero"/></g></svg>