<svg xmlns="http://www.w3.org/2000/svg" xmlns:xlink="http://www.w3.org/1999/xlink" width="192" zoomAndPan="magnify" viewBox="0 0 144 143.999998" height="192" preserveAspectRatio="xMidYMid meet" version="1.0"><defs><clipPath id="74746fafe9"><path d="M 0 13.589844 L 144 13.589844 L 144 130.589844 L 0 130.589844 Z M 0 13.589844 " clip-rule="nonzero"/></clipPath></defs><path fill="#4c8099" d="M 51.113281 88.734375 L 62.351562 88.734375 C 58.71875 84.71875 61.546875 78.199219 67.027344 78.199219 C 72.511719 78.199219 75.339844 84.71875 71.707031 88.734375 L 82.945312 88.734375 C 85.046875 88.734375 86.765625 90.453125 86.765625 92.554688 L 86.765625 103.792969 C 90.78125 100.160156 97.300781 102.988281 97.300781 108.46875 C 97.300781 113.953125 90.78125 116.78125 86.765625 113.148438 L 86.765625 124.386719 C 86.765625 126.488281 85.046875 128.207031 82.945312 128.207031 L 51.113281 128.207031 C 49.011719 128.207031 47.292969 126.488281 47.292969 124.386719 L 47.292969 92.554688 C 47.292969 90.453125 49.011719 88.734375 51.113281 88.734375 Z M 51.113281 88.734375 " fill-opacity="1" fill-rule="evenodd"/><path fill="#c89221" d="M 80.308594 28.925781 L 107.875 44.839844 C 109.695312 45.890625 110.324219 48.242188 109.273438 50.0625 L 93.359375 77.625 C 92.308594 79.445312 89.957031 80.078125 88.136719 79.027344 L 78.40625 73.40625 C 83.5625 71.746094 84.371094 64.6875 79.621094 61.945312 C 74.875 59.203125 69.164062 63.433594 70.304688 68.730469 L 60.574219 63.113281 C 58.753906 62.058594 58.121094 59.710938 59.175781 57.890625 L 64.792969 48.160156 C 59.496094 49.296875 55.265625 43.589844 58.007812 38.839844 C 60.75 34.09375 67.808594 34.902344 69.46875 40.058594 L 75.089844 30.328125 C 76.140625 28.503906 78.488281 27.875 80.308594 28.925781 Z M 80.308594 28.925781 " fill-opacity="1" fill-rule="evenodd"/><path fill="#125873" d="M 56.714844 95.214844 L 56.460938 95.554688 C 55.277344 97.128906 53.058594 97.488281 51.4375 96.367188 L 36.015625 85.6875 L 30.375 96.96875 L 37.046875 102.804688 C 39.738281 105.160156 40.34375 109.019531 38.507812 112.089844 L 30.085938 126.144531 C 29.074219 127.835938 27.101562 128.59375 25.21875 128.015625 C 23.855469 127.597656 22.917969 127.121094 22.21875 125.71875 C 21.683594 124.640625 21.617188 123.515625 22.027344 122.386719 L 26.144531 111.066406 L 10.640625 109.65625 C 7.15625 109.316406 4.90625 108.351562 3.730469 106.839844 C 2.28125 104.984375 2.699219 102.25 3.734375 99.496094 C 5.691406 94.292969 10.410156 86.378906 13.296875 81.480469 C 15.945312 76.980469 18.582031 73.011719 20.527344 71.148438 C 23.445312 68.355469 26.050781 66.832031 28.808594 66.699219 C 33.800781 66.460938 36.898438 69.863281 39.976562 73.113281 L 56.441406 90.492188 C 57.683594 91.800781 57.796875 93.769531 56.714844 95.214844 Z M 56.714844 95.214844 " fill-opacity="1" fill-rule="evenodd"/><path fill="#c89221" d="M 30.394531 45.667969 C 31.085938 45.707031 31.765625 45.8125 32.433594 45.984375 C 33.105469 46.15625 33.75 46.390625 34.371094 46.691406 C 34.996094 46.992188 35.582031 47.347656 36.136719 47.761719 C 36.6875 48.175781 37.195312 48.644531 37.65625 49.15625 C 38.117188 49.671875 38.523438 50.226562 38.875 50.820312 C 39.226562 51.417969 39.515625 52.039062 39.742188 52.691406 C 39.972656 53.34375 40.136719 54.011719 40.234375 54.695312 C 40.328125 55.378906 40.359375 56.066406 40.320312 56.757812 C 40.28125 57.445312 40.179688 58.125 40.003906 58.796875 C 39.832031 59.464844 39.597656 60.109375 39.296875 60.734375 C 39 61.355469 38.640625 61.945312 38.226562 62.496094 C 37.8125 63.050781 37.347656 63.554688 36.832031 64.015625 C 36.316406 64.476562 35.761719 64.882812 35.167969 65.234375 C 34.574219 65.585938 33.949219 65.875 33.296875 66.105469 C 32.644531 66.332031 31.976562 66.496094 31.292969 66.59375 C 30.609375 66.691406 29.921875 66.71875 29.234375 66.683594 C 28.542969 66.644531 27.863281 66.539062 27.195312 66.367188 C 26.523438 66.195312 25.878906 65.960938 25.257812 65.660156 C 24.632812 65.359375 24.046875 65.003906 23.492188 64.589844 C 22.941406 64.171875 22.433594 63.707031 21.972656 63.195312 C 21.511719 62.679688 21.105469 62.125 20.753906 61.527344 C 20.402344 60.933594 20.113281 60.3125 19.882812 59.660156 C 19.65625 59.007812 19.492188 58.339844 19.394531 57.65625 C 19.300781 56.96875 19.269531 56.285156 19.308594 55.59375 C 19.347656 54.902344 19.449219 54.222656 19.621094 53.554688 C 19.796875 52.886719 20.03125 52.238281 20.332031 51.617188 C 20.628906 50.996094 20.988281 50.40625 21.402344 49.855469 C 21.816406 49.300781 22.28125 48.796875 22.796875 48.335938 C 23.3125 47.875 23.867188 47.46875 24.460938 47.117188 C 25.054688 46.765625 25.679688 46.472656 26.332031 46.246094 C 26.984375 46.015625 27.652344 45.855469 28.335938 45.757812 C 29.019531 45.660156 29.707031 45.628906 30.394531 45.667969 Z M 30.394531 45.667969 " fill-opacity="1" fill-rule="nonzero"/><path fill="#c89221" d="M 117.035156 90.460938 L 112.140625 104.882812 L 112.140625 124.257812 C 112.140625 126.433594 113.914062 128.207031 116.089844 128.207031 C 118.167969 128.207031 119.796875 126.9375 120.144531 124.941406 L 123.417969 106.289062 L 130.46875 89.375 Z M 117.035156 90.460938 " fill-opacity="1" fill-rule="evenodd"/><path fill="#4c8099" d="M 137.972656 15.890625 C 140.167969 22.898438 135.324219 30.667969 128.070312 31.789062 C 125.875 24.78125 130.71875 17.011719 137.972656 15.890625 Z M 137.972656 15.890625 " fill-opacity="1" fill-rule="evenodd"/><path fill="#4c8099" d="M 107.070312 15.890625 C 104.875 22.898438 109.71875 30.667969 116.972656 31.789062 C 119.164062 24.78125 114.324219 17.011719 107.070312 15.890625 Z M 107.070312 15.890625 " fill-opacity="1" fill-rule="evenodd"/><path fill="#c89221" d="M 122.992188 26.671875 C 123.683594 26.703125 124.363281 26.800781 125.035156 26.964844 C 125.707031 27.132812 126.355469 27.359375 126.980469 27.652344 C 127.605469 27.949219 128.195312 28.296875 128.753906 28.707031 C 129.308594 29.117188 129.820312 29.578125 130.285156 30.085938 C 130.753906 30.597656 131.164062 31.148438 131.523438 31.738281 C 131.878906 32.332031 132.175781 32.953125 132.410156 33.601562 C 132.644531 34.25 132.816406 34.917969 132.917969 35.601562 C 133.023438 36.285156 133.058594 36.96875 133.027344 37.660156 C 132.996094 38.351562 132.898438 39.03125 132.734375 39.703125 C 132.570312 40.371094 132.339844 41.019531 132.046875 41.648438 C 131.753906 42.273438 131.402344 42.863281 130.992188 43.421875 C 130.582031 43.976562 130.121094 44.488281 129.613281 44.953125 C 129.101562 45.417969 128.550781 45.832031 127.960938 46.1875 C 127.371094 46.546875 126.75 46.84375 126.097656 47.078125 C 125.449219 47.3125 124.78125 47.484375 124.101562 47.585938 C 123.417969 47.691406 122.730469 47.726562 122.039062 47.695312 C 121.351562 47.664062 120.667969 47.566406 120 47.402344 C 119.328125 47.234375 118.679688 47.007812 118.054688 46.714844 C 117.429688 46.421875 116.835938 46.070312 116.28125 45.660156 C 115.722656 45.25 115.210938 44.789062 114.746094 44.28125 C 114.28125 43.769531 113.867188 43.21875 113.511719 42.628906 C 113.152344 42.035156 112.859375 41.414062 112.621094 40.765625 C 112.386719 40.117188 112.21875 39.449219 112.113281 38.765625 C 112.007812 38.085938 111.972656 37.398438 112.003906 36.707031 C 112.035156 36.015625 112.132812 35.335938 112.300781 34.664062 C 112.464844 33.996094 112.695312 33.347656 112.988281 32.71875 C 113.28125 32.09375 113.632812 31.503906 114.039062 30.945312 C 114.449219 30.390625 114.910156 29.878906 115.421875 29.414062 C 115.929688 28.949219 116.480469 28.535156 117.074219 28.179688 C 117.664062 27.820312 118.285156 27.523438 118.933594 27.289062 C 119.582031 27.054688 120.25 26.882812 120.933594 26.78125 C 121.617188 26.675781 122.304688 26.640625 122.992188 26.671875 Z M 122.992188 26.671875 " fill-opacity="1" fill-rule="nonzero"/><path fill="#4c8099" d="M 88.316406 44.949219 L 88.585938 44.707031 C 89.96875 43.449219 92.042969 43.425781 93.457031 44.648438 L 106.082031 55.589844 L 114.960938 49.5625 C 123.546875 45.496094 127.148438 48.144531 130.71875 55.996094 C 135.347656 66.183594 139.054688 76.761719 141.746094 87.625 C 131.621094 92.636719 121.003906 96.308594 107.910156 93.265625 L 111.886719 64.125 L 106.71875 66.148438 C 104.03125 67.203125 101.09375 66.414062 99.289062 64.160156 L 87.921875 49.953125 C 86.710938 48.441406 86.882812 46.253906 88.316406 44.949219 Z M 88.316406 44.949219 " fill-opacity="1" fill-rule="evenodd"/><g clip-path="url(#74746fafe9)"><path fill="#1e2f3f" d="M 91.003906 112.601562 C 89.976562 112.601562 88.984375 112.222656 88.234375 111.53125 C 86.855469 110.28125 84.59375 111.246094 84.59375 113.140625 L 84.59375 124.378906 C 84.59375 125.289062 83.863281 126.03125 82.941406 126.03125 L 51.125 126.03125 C 50.203125 126.03125 49.46875 125.289062 49.46875 124.378906 L 49.46875 97.632812 L 50.203125 98.148438 C 52.796875 99.941406 56.3125 99.371094 58.195312 96.851562 L 58.457031 96.507812 C 59.691406 94.847656 59.9375 92.730469 59.222656 90.898438 L 62.355469 90.898438 C 64.21875 90.898438 65.234375 88.691406 63.960938 87.269531 C 61.578125 84.621094 63.457031 80.363281 67.042969 80.363281 C 70.601562 80.363281 72.488281 84.617188 70.105469 87.269531 C 68.832031 88.691406 69.847656 90.898438 71.707031 90.898438 L 82.941406 90.898438 C 83.863281 90.898438 84.59375 91.640625 84.59375 92.550781 L 84.59375 103.785156 C 84.59375 105.683594 86.851562 106.648438 88.234375 105.394531 C 90.863281 103.015625 95.132812 104.871094 95.132812 108.464844 C 95.128906 110.746094 93.285156 112.601562 91.003906 112.601562 Z M 143.890625 87.976562 L 143.855469 87.101562 C 141.175781 76.238281 137.414062 65.46875 132.691406 55.089844 C 131.613281 52.71875 130.308594 50.234375 128.480469 48.390625 C 134.449219 45.203125 136.914062 37.882812 134 31.75 C 139.359375 28.210938 141.957031 21.421875 140.042969 15.238281 C 139.730469 14.210938 138.699219 13.574219 137.640625 13.742188 C 131.878906 14.632812 127.125 19.191406 125.78125 24.914062 C 123.648438 24.347656 121.40625 24.34375 119.265625 24.914062 C 117.921875 19.199219 113.164062 14.625 107.40625 13.742188 C 106.34375 13.578125 105.316406 14.210938 105.003906 15.238281 C 103.089844 21.417969 105.707031 28.214844 111.046875 31.75 C 108.472656 37.160156 110.078125 43.613281 114.792969 47.246094 C 113.378906 47.898438 113.324219 48.046875 111.902344 49.019531 C 112.21875 46.585938 111.121094 44.199219 108.957031 42.957031 L 81.390625 27.042969 C 78.535156 25.390625 74.859375 26.375 73.207031 29.234375 L 69.375 35.894531 C 65.300781 32.042969 58.859375 33.019531 56.121094 37.75 C 53.363281 42.519531 55.890625 48.652344 61.136719 50.140625 L 57.308594 56.796875 C 55.648438 59.667969 56.621094 63.332031 59.484375 64.988281 L 69.21875 70.605469 C 70.835938 71.535156 72.828125 70.128906 72.421875 68.269531 C 71.675781 64.847656 75.390625 62.011719 78.535156 63.816406 C 81.671875 65.621094 81.097656 70.257812 77.75 71.335938 C 75.960938 71.914062 75.703125 74.34375 77.332031 75.28125 L 87.050781 80.902344 C 89.898438 82.542969 93.59375 81.578125 95.234375 78.707031 L 101.296875 68.210938 C 103.261719 68.949219 105.457031 68.972656 107.511719 68.167969 L 109.238281 67.492188 L 105.769531 92.964844 C 105.613281 94.078125 106.328125 95.121094 107.425781 95.375 C 109.253906 95.800781 111.03125 96.097656 112.769531 96.285156 L 110.089844 104.179688 C 110.019531 104.402344 109.96875 104.636719 109.96875 104.875 L 109.96875 124.253906 C 109.96875 127.65625 112.679688 130.371094 116.253906 130.371094 C 119.230469 130.371094 121.773438 128.246094 122.277344 125.3125 L 125.519531 106.898438 L 130.691406 94.496094 C 134.921875 93.214844 138.910156 91.453125 142.707031 89.566406 C 143.355469 89.25 143.777344 88.648438 143.890625 87.976562 Z M 37.261719 83.898438 L 52.675781 94.578125 C 53.335938 95.035156 54.242188 94.890625 54.730469 94.246094 C 54.984375 93.898438 55.78125 92.9375 54.867188 91.980469 L 38.1875 74.371094 C 35.398438 71.417969 32.960938 68.855469 29.304688 68.855469 C 26.976562 68.855469 24.824219 70.039062 22.027344 72.714844 C 20.929688 73.761719 18.855469 76.324219 15.164062 82.578125 C 12.277344 87.464844 7.558594 95.445312 5.761719 100.253906 C 5.117188 101.996094 4.523438 104.320312 5.445312 105.5 C 6.25 106.539062 8.128906 107.226562 10.84375 107.488281 L 26.34375 108.894531 C 27.765625 109.023438 28.671875 110.464844 28.191406 111.800781 L 24.082031 123.125 C 23.871094 123.695312 23.890625 124.199219 24.167969 124.746094 C 24.574219 125.570312 25.09375 125.703125 25.855469 125.933594 C 26.796875 126.222656 27.71875 125.863281 28.226562 125.023438 L 36.652344 110.964844 C 37.960938 108.792969 37.523438 106.101562 35.625 104.433594 L 28.957031 98.597656 C 28.207031 97.945312 28 96.875 28.433594 95.992188 L 34.078125 84.714844 C 34.65625 83.546875 36.160156 83.140625 37.261719 83.898438 Z M 21.46875 56.171875 C 21.46875 51.566406 25.210938 47.820312 29.808594 47.820312 C 34.425781 47.820312 38.167969 51.566406 38.167969 56.171875 C 38.167969 60.765625 34.441406 64.5 29.863281 64.523438 C 29.707031 64.515625 29.546875 64.511719 29.375 64.511719 C 24.96875 64.285156 21.46875 60.632812 21.46875 56.171875 Z M 91.003906 99.988281 C 90.289062 99.988281 89.609375 100.070312 88.929688 100.242188 L 88.929688 92.550781 C 88.929688 89.246094 86.25 86.558594 82.941406 86.558594 L 75.261719 86.558594 C 76.546875 81.09375 72.484375 76.023438 67.042969 76.023438 C 61.578125 76.023438 57.519531 81.09375 58.804688 86.558594 L 55.722656 86.558594 L 41.566406 71.613281 C 39.960938 69.96875 38.511719 68.34375 36.53125 66.9375 C 40.121094 64.691406 42.503906 60.707031 42.503906 56.171875 C 42.503906 49.171875 36.8125 43.480469 29.808594 43.480469 C 22.828125 43.480469 17.132812 49.171875 17.132812 56.171875 C 17.132812 60.511719 19.308594 64.351562 22.652344 66.640625 C 17.976562 69.679688 15.113281 74.074219 11.039062 81.050781 C 8.09375 86.039062 3.636719 93.578125 1.703125 98.726562 C 0.152344 102.832031 0.257812 105.921875 2.015625 108.167969 C 3.621094 110.226562 6.371094 111.417969 10.445312 111.8125 L 23.140625 112.964844 L 19.988281 121.640625 C 18.742188 125.078125 20.613281 128.871094 24.132812 129.949219 C 24.988281 130.210938 25.539062 130.371094 26.46875 130.371094 C 28.679688 130.371094 30.769531 129.226562 31.953125 127.253906 L 40.382812 113.199219 C 42.730469 109.253906 41.949219 104.191406 38.484375 101.164062 L 33.066406 96.433594 L 36.847656 88.894531 L 45.136719 94.628906 L 45.136719 124.378906 C 45.136719 127.683594 47.816406 130.371094 51.125 130.371094 L 82.941406 130.371094 C 86.25 130.371094 88.933594 127.683594 88.933594 124.378906 L 88.933594 116.691406 C 94.355469 118.011719 99.484375 113.9375 99.484375 108.464844 C 99.484375 103.789062 95.671875 99.988281 91.003906 99.988281 Z M 110.332031 91.546875 C 121.511719 93.589844 130.8125 90.449219 139.207031 86.441406 C 136.628906 76.417969 133.109375 66.480469 128.742188 56.886719 C 126.929688 52.882812 125.292969 50.796875 123.445312 50.121094 C 122.828125 49.898438 122.335938 49.863281 121.6875 49.847656 C 120.171875 49.859375 118.308594 50.390625 116.046875 51.453125 L 107.304688 57.382812 C 106.484375 57.933594 105.40625 57.871094 104.65625 57.226562 L 92.03125 46.285156 C 91.457031 45.777344 90.621094 45.789062 90.046875 46.308594 L 89.785156 46.550781 C 89.191406 47.082031 89.121094 47.976562 89.628906 48.589844 L 100.980469 62.800781 C 102.199219 64.308594 104.132812 64.824219 105.925781 64.121094 L 111.097656 62.097656 C 112.640625 61.496094 114.265625 62.792969 114.042969 64.414062 Z M 121.425781 105.449219 C 121.355469 105.597656 121.304688 105.753906 121.285156 105.910156 L 118.011719 124.558594 C 117.628906 126.703125 114.320312 126.425781 114.320312 124.253906 L 114.320312 105.234375 L 117.265625 96.542969 C 120.1875 96.542969 122.734375 96.292969 125.449219 95.785156 Z M 91.472656 76.535156 C 91.019531 77.324219 90.011719 77.59375 89.226562 77.140625 L 82.574219 73.296875 C 86.394531 69.273438 85.453125 62.800781 80.710938 60.058594 C 75.8125 57.222656 69.664062 60 68.328125 65.070312 L 61.660156 61.222656 C 60.871094 60.773438 60.613281 59.742188 61.050781 58.96875 L 66.675781 49.238281 C 67.621094 47.617188 66.175781 45.636719 64.34375 46.03125 C 60.828125 46.789062 58.117188 43.003906 59.882812 39.921875 C 61.652344 36.835938 66.316406 37.3125 67.40625 40.71875 C 67.972656 42.484375 70.40625 42.777344 71.359375 41.136719 L 76.96875 31.40625 C 77.425781 30.625 78.4375 30.347656 79.230469 30.804688 L 106.796875 46.714844 C 107.566406 47.167969 107.84375 48.199219 107.390625 48.972656 L 105.527344 52.222656 L 94.886719 43 C 92.640625 41.066406 89.316406 41.105469 87.121094 43.097656 L 86.859375 43.339844 C 84.59375 45.40625 84.316406 48.90625 86.230469 51.304688 L 97.605469 65.515625 C 97.636719 65.574219 97.691406 65.628906 97.742188 65.6875 Z M 114.183594 37.183594 C 114.183594 32.578125 117.925781 28.832031 122.523438 28.832031 C 127.136719 28.832031 130.882812 32.578125 130.882812 37.183594 C 130.882812 41.761719 127.171875 45.488281 122.609375 45.535156 C 122.332031 45.511719 122.054688 45.503906 121.773438 45.5 C 117.523438 45.121094 114.183594 41.535156 114.183594 37.183594 Z M 113.554688 28.203125 C 110.351562 26.144531 108.445312 22.339844 108.75 18.574219 C 112.152344 19.910156 114.683594 23.148438 115.226562 26.8125 C 114.632812 27.230469 114.078125 27.695312 113.554688 28.203125 Z M 131.316406 22.773438 C 132.535156 20.824219 134.296875 19.359375 136.296875 18.574219 C 136.632812 22.339844 134.679688 26.15625 131.492188 28.203125 C 130.96875 27.695312 130.429688 27.230469 129.835938 26.8125 C 130.046875 25.402344 130.550781 24.023438 131.316406 22.773438 Z M 131.316406 22.773438 " fill-opacity="1" fill-rule="evenodd"/></g></svg>