<svg xmlns="http://www.w3.org/2000/svg" xmlns:xlink="http://www.w3.org/1999/xlink" width="192" zoomAndPan="magnify" viewBox="0 0 144 143.999998" height="192" preserveAspectRatio="xMidYMid meet" version="1.0"><path fill="#000000" d="M 42.164062 0.496094 C 34.503906 0.855469 29.273438 2.082031 24.703125 3.871094 C 19.96875 5.71875 15.960938 8.1875 11.972656 12.195312 C 7.976562 16.203125 5.519531 20.21875 3.695312 24.960938 C 1.925781 29.546875 0.726562 34.777344 0.386719 42.441406 C 0.046875 50.113281 -0.0273438 52.558594 0.0078125 72.109375 C 0.0390625 91.648438 0.128906 94.105469 0.496094 101.785156 C 0.863281 109.441406 2.082031 114.664062 3.871094 119.242188 C 5.71875 123.976562 8.1875 127.980469 12.195312 131.972656 C 16.203125 135.96875 20.21875 138.417969 24.960938 140.25 C 29.539062 142.019531 34.777344 143.226562 42.433594 143.558594 C 50.113281 143.898438 52.558594 143.972656 72.101562 143.933594 C 91.648438 143.898438 94.097656 143.808594 101.777344 143.445312 C 109.433594 143.078125 114.65625 141.851562 119.234375 140.066406 C 123.96875 138.214844 127.980469 135.753906 131.96875 131.742188 C 135.957031 127.734375 138.410156 123.71875 140.242188 118.976562 C 142.011719 114.398438 143.21875 109.164062 143.550781 101.511719 C 143.882812 93.835938 143.964844 91.378906 143.933594 71.835938 C 143.898438 52.296875 143.804688 49.847656 143.445312 42.167969 C 143.078125 34.503906 141.855469 29.28125 140.066406 24.703125 C 138.214844 19.96875 135.753906 15.96875 131.742188 11.972656 C 127.734375 7.984375 123.71875 5.519531 118.976562 3.695312 C 114.398438 1.925781 109.164062 0.71875 101.503906 0.386719 C 93.828125 0.046875 91.371094 -0.0273438 71.832031 0.0078125 C 52.289062 0.0390625 49.839844 0.128906 42.164062 0.496094 M 43.003906 130.597656 C 35.988281 130.292969 32.179688 129.125 29.632812 128.148438 C 26.269531 126.847656 23.875 125.285156 21.34375 122.785156 C 18.824219 120.265625 17.261719 117.871094 15.945312 114.523438 C 14.964844 111.984375 13.777344 108.179688 13.445312 101.160156 C 13.085938 93.578125 13.003906 91.296875 12.96875 72.082031 C 12.933594 52.871094 13.003906 50.59375 13.335938 43.003906 C 13.632812 35.988281 14.808594 32.179688 15.785156 29.640625 C 17.085938 26.277344 18.640625 23.882812 21.148438 21.351562 C 23.664062 18.828125 26.058594 17.269531 29.417969 15.953125 C 31.953125 14.964844 35.757812 13.78125 42.773438 13.449219 C 50.363281 13.089844 52.636719 13.015625 71.851562 12.976562 C 91.066406 12.933594 93.34375 13.003906 100.9375 13.34375 C 107.949219 13.648438 111.761719 14.808594 114.296875 15.789062 C 117.664062 17.09375 120.0625 18.640625 122.585938 21.15625 C 125.109375 23.671875 126.675781 26.058594 127.984375 29.425781 C 128.976562 31.953125 130.15625 35.765625 130.488281 42.773438 C 130.847656 50.363281 130.929688 52.640625 130.964844 71.851562 C 130.996094 91.066406 130.929688 93.34375 130.597656 100.929688 C 130.292969 107.941406 129.125 111.761719 128.148438 114.296875 C 126.847656 117.65625 125.292969 120.054688 122.777344 122.578125 C 120.261719 125.097656 117.871094 126.664062 114.507812 127.980469 C 111.976562 128.96875 108.167969 130.148438 101.160156 130.480469 C 93.570312 130.839844 91.296875 130.921875 72.074219 130.957031 C 52.867188 130.992188 50.585938 130.921875 42.996094 130.589844 M 101.675781 33.5 C 101.683594 38.269531 105.5625 42.128906 110.324219 42.113281 C 115.089844 42.109375 118.949219 38.234375 118.945312 33.464844 C 118.9375 28.699219 115.058594 24.839844 110.289062 24.84375 C 105.519531 24.851562 101.660156 28.730469 101.667969 33.492188 M 35.011719 72.039062 C 35.054688 92.449219 51.632812 108.960938 72.035156 108.917969 C 92.445312 108.878906 108.960938 92.308594 108.917969 71.898438 C 108.878906 51.496094 92.300781 34.980469 71.890625 35.011719 C 51.488281 35.054688 34.972656 51.632812 35.011719 72.039062 M 47.976562 72.011719 C 47.953125 58.765625 58.671875 48.003906 71.917969 47.980469 C 85.164062 47.953125 95.929688 58.671875 95.957031 71.925781 C 95.984375 85.171875 85.261719 95.9375 72.011719 95.957031 C 58.765625 95.984375 48.003906 85.261719 47.980469 72.011719 " fill-opacity="1" fill-rule="nonzero"/></svg>