<svg xmlns="http://www.w3.org/2000/svg" xmlns:xlink="http://www.w3.org/1999/xlink" width="192" zoomAndPan="magnify" viewBox="0 0 144 143.999998" height="192" preserveAspectRatio="xMidYMid meet" version="1.0"><defs><clipPath id="dfaf1861f7"><path d="M 16 6 L 137.039062 6 L 137.039062 144 L 16 144 Z M 16 6 " clip-rule="nonzero"/></clipPath><clipPath id="9a9ff5cc1f"><path d="M 21 61 L 89 61 L 89 128 L 21 128 Z M 21 61 " clip-rule="nonzero"/></clipPath><clipPath id="57f2c02f84"><path d="M 75.0625 0.0859375 L 98.792969 0 C 99.046875 13.527344 105.582031 21.832031 112.890625 26.96875 C 112.890625 27.050781 112.976562 27.050781 112.976562 27.050781 C 118.136719 30.90625 124.238281 32.875 131.890625 33.046875 L 131.890625 56.671875 C 118.394531 56.671875 107.214844 52.308594 98.792969 46.058594 L 98.703125 95.371094 C 98.53125 108.726562 92.773438 118.65625 85.808594 125.25 C 85.207031 125.851562 84.605469 126.449219 83.917969 126.960938 C 74.976562 134.496094 66.207031 138.003906 54.171875 137.921875 C 42.304688 137.75 33.363281 133.296875 25.800781 126.792969 C 20.125 121.914062 15.566406 115.578125 12.988281 106.84375 C 7.402344 87.667969 14.449219 68.660156 30.355469 57.789062 C 30.699219 57.53125 31.128906 57.277344 31.558594 57.015625 C 44.453125 48.96875 59.761719 47.171875 74.976562 54.792969 C 75.0625 65.921875 74.976562 77.820312 74.976562 88.863281 C 71.367188 75.421875 53.484375 68.316406 41.789062 78.421875 C 41.703125 78.507812 41.445312 78.761719 41.359375 78.847656 C 36.71875 82.785156 34.652344 88.953125 34.996094 95.542969 C 35.859375 107.359375 45.65625 114.71875 56.320312 114.207031 C 56.320312 114.207031 56.40625 114.207031 56.40625 114.207031 C 66.722656 113.179688 75.234375 104.789062 74.976562 93.488281 Z M 75.0625 0.0859375 " clip-rule="evenodd"/></clipPath><clipPath id="3422c22875"><path d="M 16 6 L 132 6 L 132 138 L 16 138 Z M 16 6 " clip-rule="nonzero"/></clipPath><clipPath id="f3975e23a3"><path d="M 75.0625 0.0859375 L 98.792969 0 C 99.046875 13.527344 105.582031 21.832031 112.890625 26.96875 C 112.890625 27.050781 112.976562 27.050781 112.976562 27.050781 C 118.136719 30.90625 124.238281 32.875 131.890625 33.046875 L 131.890625 56.671875 C 118.394531 56.671875 107.214844 52.308594 98.792969 46.058594 L 98.703125 95.371094 C 98.53125 108.726562 92.773438 118.65625 85.808594 125.25 C 85.207031 125.851562 84.605469 126.449219 83.917969 126.960938 C 74.976562 134.496094 66.207031 138.003906 54.171875 137.921875 C 42.304688 137.75 33.363281 133.296875 25.800781 126.792969 C 20.125 121.914062 15.566406 115.578125 12.988281 106.84375 C 7.402344 87.667969 14.449219 68.660156 30.355469 57.789062 C 30.699219 57.53125 31.128906 57.277344 31.558594 57.015625 C 44.453125 48.96875 59.761719 47.171875 74.976562 54.792969 C 75.0625 65.921875 74.976562 77.820312 74.976562 88.863281 C 71.367188 75.421875 53.484375 68.316406 41.789062 78.421875 C 41.703125 78.507812 41.445312 78.761719 41.359375 78.847656 C 36.71875 82.785156 34.652344 88.953125 34.996094 95.542969 C 35.859375 107.359375 45.65625 114.71875 56.320312 114.207031 C 56.320312 114.207031 56.40625 114.207031 56.40625 114.207031 C 66.722656 113.179688 75.234375 104.789062 74.976562 93.488281 Z M 75.0625 0.0859375 " clip-rule="evenodd"/></clipPath></defs><g clip-path="url(#dfaf1861f7)"><path fill="#fe2c55" d="M 80.207031 6.113281 L 103.9375 6.027344 C 104.195312 19.554688 110.726562 27.859375 118.035156 32.996094 C 118.035156 33.082031 118.121094 33.082031 118.121094 33.082031 C 123.28125 36.933594 129.386719 38.902344 137.039062 39.074219 L 137.039062 62.703125 C 123.539062 62.703125 112.363281 58.335938 103.9375 52.085938 L 103.847656 101.402344 C 103.679688 114.753906 97.917969 124.6875 90.953125 131.277344 C 90.351562 131.878906 89.75 132.476562 89.0625 132.988281 C 80.121094 140.523438 71.351562 144.035156 59.316406 143.949219 C 47.449219 143.777344 38.507812 139.324219 30.945312 132.820312 C 25.269531 127.941406 20.714844 121.605469 18.132812 112.871094 C 12.546875 93.695312 19.59375 74.6875 35.5 63.816406 C 35.84375 63.558594 36.273438 63.304688 36.703125 63.046875 C 49.601562 54.996094 64.902344 53.199219 80.121094 60.820312 C 80.207031 71.949219 80.121094 83.851562 80.121094 94.890625 C 76.511719 81.453125 58.628906 74.34375 46.933594 84.449219 C 46.847656 84.535156 46.589844 84.789062 46.503906 84.875 C 41.863281 88.816406 39.796875 94.980469 40.144531 101.570312 C 41.003906 113.386719 50.804688 120.75 61.464844 120.234375 C 61.464844 120.234375 61.550781 120.234375 61.550781 120.234375 C 71.867188 119.207031 80.378906 110.816406 80.121094 99.515625 Z M 80.207031 6.113281 " fill-opacity="1" fill-rule="evenodd"/></g><path fill="#fe2c55" d="M 59.917969 67.386719 C 78.339844 67.386719 93.261719 82.320312 93.261719 100.652344 C 93.261719 118.980469 78.339844 133.808594 59.917969 133.808594 C 41.496094 133.808594 26.574219 118.980469 26.574219 100.652344 C 26.574219 82.320312 41.496094 67.386719 59.917969 67.386719 Z M 59.917969 84.070312 C 69.078125 84.070312 76.589844 91.484375 76.589844 100.652344 C 76.589844 109.816406 69.078125 117.230469 59.917969 117.230469 C 50.757812 117.230469 43.246094 109.816406 43.246094 100.652344 C 43.246094 91.484375 50.757812 84.070312 59.917969 84.070312 Z M 59.917969 84.070312 " fill-opacity="1" fill-rule="evenodd"/><path fill="#25f4ee" d="M 75.0625 0.0859375 L 98.792969 0 C 99.050781 13.523438 105.582031 21.832031 112.890625 26.96875 C 112.890625 27.054688 112.976562 27.054688 112.976562 27.054688 C 118.136719 30.90625 124.238281 32.875 131.890625 33.046875 L 131.890625 56.675781 C 118.394531 56.675781 107.214844 52.308594 98.792969 46.058594 L 98.703125 95.371094 C 98.535156 108.726562 92.773438 118.65625 85.808594 125.25 C 85.207031 125.851562 84.605469 126.449219 83.917969 126.960938 C 74.976562 134.496094 66.207031 138.007812 54.171875 137.921875 C 42.304688 137.75 33.363281 133.296875 25.796875 126.792969 C 20.125 121.914062 15.566406 115.574219 12.988281 106.84375 C 7.398438 87.667969 14.449219 68.660156 30.355469 57.789062 C 30.699219 57.53125 31.128906 57.273438 31.558594 57.015625 C 44.457031 48.96875 59.757812 47.171875 74.976562 54.792969 C 75.0625 65.921875 74.976562 77.820312 74.976562 88.863281 C 71.367188 75.425781 53.484375 68.316406 41.789062 78.421875 C 41.703125 78.507812 41.445312 78.761719 41.359375 78.847656 C 36.71875 82.785156 34.652344 88.953125 35 95.542969 C 35.859375 107.359375 45.660156 114.71875 56.320312 114.207031 C 56.320312 114.207031 56.40625 114.207031 56.40625 114.207031 C 66.722656 113.179688 75.234375 104.789062 74.976562 93.488281 Z M 75.0625 0.0859375 " fill-opacity="1" fill-rule="evenodd"/><g clip-path="url(#9a9ff5cc1f)"><g clip-path="url(#57f2c02f84)"><path fill="#25f4ee" d="M 54.769531 61.4375 C 73.191406 61.4375 88.113281 76.367188 88.113281 94.699219 C 88.113281 113.03125 73.191406 127.859375 54.769531 127.859375 C 36.347656 127.859375 21.425781 113.03125 21.425781 94.699219 C 21.425781 76.367188 36.347656 61.4375 54.769531 61.4375 Z M 54.769531 78.121094 C 63.929688 78.121094 71.441406 85.535156 71.441406 94.699219 C 71.441406 103.863281 63.929688 111.277344 54.769531 111.277344 C 45.609375 111.277344 38.097656 103.863281 38.097656 94.699219 C 38.097656 85.535156 45.609375 78.121094 54.769531 78.121094 Z M 54.769531 78.121094 " fill-opacity="1" fill-rule="evenodd"/></g></g><g clip-path="url(#3422c22875)"><g clip-path="url(#f3975e23a3)"><path fill="#000000" d="M 80.199219 6.113281 L 103.929688 6.027344 C 104.1875 19.554688 110.722656 27.859375 118.03125 32.996094 C 118.03125 33.082031 118.117188 33.082031 118.117188 33.082031 C 123.277344 36.933594 129.378906 38.902344 137.03125 39.074219 L 137.03125 62.703125 C 123.53125 62.703125 112.355469 58.335938 103.929688 52.085938 L 103.84375 101.402344 C 103.671875 114.753906 97.914062 124.6875 90.949219 131.277344 C 90.347656 131.878906 89.746094 132.476562 89.058594 132.988281 C 80.117188 140.523438 71.347656 144.035156 59.308594 143.949219 C 47.445312 143.777344 38.503906 139.324219 30.9375 132.820312 C 25.265625 127.941406 20.707031 121.605469 18.128906 112.871094 C 12.539062 93.695312 19.589844 74.6875 35.492188 63.816406 C 35.839844 63.558594 36.269531 63.304688 36.699219 63.046875 C 49.59375 54.996094 64.898438 53.199219 80.117188 60.820312 C 80.199219 71.949219 80.117188 83.851562 80.117188 94.890625 C 76.503906 81.453125 58.621094 74.34375 46.929688 84.449219 C 46.84375 84.535156 46.585938 84.789062 46.5 84.875 C 41.855469 88.816406 39.792969 94.980469 40.136719 101.570312 C 40.996094 113.386719 50.796875 120.75 61.460938 120.234375 C 61.460938 120.234375 61.546875 120.234375 61.546875 120.234375 C 71.863281 119.207031 80.375 110.816406 80.117188 99.515625 C 80.199219 68.351562 80.199219 37.191406 80.199219 6.113281 Z M 80.199219 6.113281 " fill-opacity="1" fill-rule="evenodd"/></g></g></svg>