<svg width="50" height="50" viewBox="0 0 197 184" fill="none" xmlns="http://www.w3.org/2000/svg">
<g clip-path="url(#clip0_378_567)">
<path d="M162.63 46.69C162.44 47 162.5 47.25 162.72 47.56C169.67 57.39 174.19 68.24 176.24 80.11C177.62 88.08 177.79 96.08 176.71 104.1C174.35 121.68 166.99 136.87 154.62 149.56C143.67 160.8 130.48 168.13 115.18 171.65C115.03 171.68 114.88 171.72 114.73 171.75C114.52 171.48 114.66 171.2 114.73 170.94C115.68 167.61 116.63 164.28 117.61 160.96C118.1 159.31 118.57 157.66 119.06 156.01C119.08 155.93 119.08 155.8 119.13 155.76C119.72 155.33 119.24 154.94 119.1 154.55C117.64 150.67 116.12 146.82 114.72 142.92C114.4 142.02 114.05 141.13 113.72 140.22C115.43 144.82 117 149.46 118.68 154.06C119.04 155.06 119.12 155.94 118.8 156.96C117.33 161.75 115.98 166.57 114.5 171.36C114.42 171.63 114.3 171.9 114.54 172.16C114.08 172.23 113.92 172.54 113.77 172.95C112.57 176.17 111.33 179.37 110.14 182.59C109.98 183.03 109.77 183.17 109.3 183.17C101.78 183.15 94.26 183.15 86.74 183.17C86.29 183.17 86.1 183.03 85.95 182.62C84.72 179.3 83.46 175.98 82.2 172.67C82.15 172.54 82.26 172.14 81.86 172.28C81.64 172.21 81.6 172.01 81.53 171.83C79.62 166.69 77.68 161.57 75.78 156.43C75.73 156.29 75.69 156.14 75.67 155.99C75.67 155.72 75.56 155.48 75.45 155.25C71.13 143.89 66.86 132.52 62.54 121.16C58.64 110.88 54.75 100.6 50.84 90.32C47.36 81.16 43.89 72.01 40.39 62.86C40.26 62.53 40.26 62.11 39.85 61.94C39.26 60.92 38.94 59.78 38.51 58.69C36.93 54.65 35.36 50.61 33.81 46.56C33.7 46.27 33.44 45.99 33.66 45.64C33.91 45.48 33.83 45.27 33.75 45.06C31.56 39.61 29.55 34.09 27.22 28.7C24.5 22.4 19.94 17.94 14.05 14.59C9.86999 12.22 5.38999 10.99 0.69999 10.3C0.45999 10.26 0.22999 10.21 -0.0100098 10.17C-0.0100098 6.85 -0.0100098 3.53 -0.0100098 0.22C0.20999 0.02 0.44999 0 0.68999 0C0.92999 0 1.16999 0 1.40999 0C30.67 0 59.94 0 89.2 0C90.2933 0 90.84 0.536667 90.84 1.61C90.84 4.05 90.84 6.5 90.84 8.94C90.84 9.99 90.73 10.09 89.72 10.23C85.01 10.9 80.3 11.55 75.7 12.85C74.01 13.33 72.36 13.9 70.94 14.97C69.92 15.74 69.08 16.64 69.09 18.04C69.09 18.72 69.16 18.77 69.8 18.53C75.62 16.38 81.61 14.95 87.77 14.19C89.59 13.97 91.41 13.84 93.24 13.72C95.1 13.6 96.95 13.61 98.8 13.62C104.45 13.67 110.02 14.37 115.53 15.64C120.48 16.78 125.28 18.36 129.92 20.43C137.06 23.61 143.62 27.73 149.56 32.82C150.15 33.32 150.64 33.98 151.4 34.25C151.74 34.29 152 34.48 152.26 34.68C153.71 35.8 154.96 37.13 156.18 38.49C158.08 40.61 159.82 42.86 161.54 45.13C161.92 45.63 162.29 46.14 162.63 46.67V46.69ZM155.81 64.08C155.95 64.23 155.84 64.23 155.73 64.25C143.78 94.53 131.97 124.86 120.51 155.33C120.66 155.42 120.74 155.33 120.84 155.29C124.44 153.94 127.93 152.33 131.18 150.28C151.14 137.72 161.97 119.69 163.26 96.12C163.78 86.58 161.99 77.37 158.34 68.53C157.7 66.98 157 65.46 156.23 63.97C156.16 63.84 156.11 63.42 155.85 63.86C155.78 63.93 155.76 64.03 155.81 64.09V64.08ZM73.12 32.76C73.22 33.02 73.31 33.28 73.41 33.54C75.96 40.54 78.58 47.51 81.29 54.44C92.24 82.54 102.83 110.77 113.38 139.02C113.43 139.14 113.38 139.35 113.6 139.36C113.63 139.32 113.66 139.29 113.67 139.26C120.63 120.62 127.59 101.97 134.32 83.24C138.28 72.22 142.24 61.19 146.2 50.17C146.33 49.81 146.36 49.57 146.06 49.25C140.47 43.19 134 38.28 126.6 34.64C115.88 29.37 104.56 27.21 92.65 28.06C85.9 28.54 79.38 30.05 73.1 32.56C73.04 32.63 73.03 32.7 73.12 32.76Z" fill="#125772"/>
<path d="M151.64 33.97C152.17 31.79 152.83 29.65 153.29 27.45C153.66 25.7 153.95 23.9399 154.11 22.15C154.33 19.7199 153.4 17.82 151.57 16.29C149.38 14.45 146.77 13.48 144.05 12.77C139.41 11.57 134.67 10.99 129.91 10.54C128.62 10.42 128.62 10.44 128.62 9.14995C128.62 6.39995 128.64 3.64995 128.6 0.899951C128.6 0.289951 128.77 0.199951 129.33 0.199951C151.4 0.209951 173.46 0.209951 195.53 0.209951C195.84 0.209951 196.14 0.209951 196.45 0.199951V10.42C188.51 11.16 181.79 14.56 176.04 19.95C173.36 22.47 171.56 25.6199 170 28.9C167.35 34.45 165.26 40.22 162.93 45.9C162.84 46.12 162.74 46.34 162.65 46.56C162.34 46.54 162.26 46.2399 162.12 46.0499C160.32 43.5099 158.37 41.09 156.32 38.75C155.06 37.31 153.76 35.91 152.26 34.7C152.01 34.5 151.73 34.31 151.63 33.97H151.64Z" fill="#125873"/>
<path d="M80.93 171.93C78.91 171.4 76.86 170.95 74.86 170.35C62.25 166.58 51.21 160.14 41.8 150.95C30.03 139.44 22.33 125.62 19.22 109.46C14.87 86.84 19.39 66 32.62 47.09C32.73 46.93 32.87 46.79 32.99 46.64C33.32 46.76 33.4 47.08 33.51 47.35C35.55 52.25 37.58 57.15 39.63 62.05C39.7 62.21 39.77 62.37 39.72 62.55C38.16 65.34 36.9 68.26 35.8 71.25C34.17 75.67 33.07 80.22 32.45 84.89C32.23 86.53 32.1 88.18 31.97 89.83C31.85 91.4 31.86 92.97 31.87 94.54C31.89 99.09 32.45 103.59 33.42 108.03C34.66 113.69 36.65 119.08 39.35 124.21C41.75 128.76 44.65 132.97 48.03 136.87C51.64 141.03 55.73 144.64 60.25 147.78C64.79 150.93 69.65 153.47 74.85 155.35C75.35 156.19 75.6 157.14 75.94 158.05C77.57 162.45 79.2 166.86 80.81 171.27C80.89 171.48 81.08 171.69 80.9 171.94L80.93 171.93Z" fill="#125873"/>
<path d="M151.64 33.9701C153.14 35.2001 154.48 36.5701 155.78 38.0001C157.59 39.9901 159.29 42.0601 160.91 44.2101C161.5 44.9901 162.07 45.7701 162.65 46.5501C162.65 46.5901 162.64 46.6401 162.63 46.6801C162.3 46.6601 162.24 46.3501 162.09 46.1601C159.8 43.1101 157.5 40.0801 154.84 37.3301C153.8 36.2501 152.76 35.2001 151.51 34.3601C151.5 34.2101 151.51 34.0701 151.63 33.9601L151.64 33.9701Z" fill="#124656"/>
<path d="M155.85 63.84C155.66 63.93 156.31 64.26 155.73 64.24C155.04 63.5 154.69 62.54 154.2 61.68C152.56 58.81 150.83 56 148.82 53.37C148.21 52.57 147.5 51.86 146.78 51.17C146.58 50.98 146.32 50.81 146.53 50.36C147.25 51.2 147.97 51.97 148.62 52.8C150.46 55.11 152.21 57.49 153.7 60.05C154.43 61.31 155.13 62.58 155.84 63.85L155.85 63.84Z" fill="#124656"/>
<path d="M80.93 171.93C79.19 167.21 77.44 162.48 75.7 157.76C75.41 156.97 75.12 156.18 74.83 155.39C74.68 155.33 74.57 155.24 74.64 155.06C74.69 154.94 74.81 154.96 74.91 154.98C75.06 155.01 75.19 155.07 75.32 155.14C75.62 155.31 75.72 155.62 75.84 155.91C76.2 157.28 76.77 158.57 77.26 159.89C78.47 163.21 79.74 166.52 80.98 169.83C81.28 170.64 81.57 171.46 81.87 172.27C81.87 172.4 81.87 172.6 81.71 172.51C81.42 172.36 80.94 172.45 80.93 171.92V171.93Z" fill="#124758"/>
<path d="M39.69 62.54C38.47 59.64 37.26 56.74 36.03 53.84C35.02 51.44 34 49.04 32.99 46.64C32.69 46.13 33.06 45.82 33.35 45.5C33.53 45.29 33.58 45.54 33.68 45.62C34.42 47.54 35.15 49.47 35.89 51.38C37.18 54.72 38.48 58.05 39.78 61.39C39.84 61.55 39.78 61.75 39.94 61.87C40.28 62.25 40.28 62.57 39.94 62.75C39.72 62.86 39.61 62.8 39.69 62.54Z" fill="#124758"/>
<path d="M114.56 172.15C113.97 172.22 114.19 171.81 114.26 171.57C114.69 170.11 115.14 168.66 115.58 167.2C116.71 163.46 117.84 159.71 118.97 155.97C119.15 155.39 118.79 154.91 118.62 154.42C117.61 151.48 116.56 148.55 115.52 145.62C114.91 143.9 114.3 142.18 113.71 140.45C113.64 140.25 113.46 140.03 113.65 139.72C114.21 141.2 114.76 142.64 115.3 144.08C116.66 147.63 118.02 151.18 119.38 154.74C119.49 155.03 119.51 155.44 120.09 155.18C118.77 155.6 118.95 156.78 118.7 157.64C117.41 161.99 116.2 166.36 114.97 170.73C114.88 171.06 114.81 171.4 114.73 171.74C114.67 171.88 114.61 172.01 114.56 172.15Z" fill="#124757"/>
<path d="M73.1 32.56C73.1 32.63 73.11 32.69 73.12 32.76C73.09 32.89 73.07 33.04 72.9 33.04C72.68 33.04 72.65 32.83 72.59 32.67C72.24 31.71 71.88 30.75 71.54 29.79C70.58 27 69.7 24.18 69.06 21.29C69.03 21.17 69.05 21.04 69.08 20.9C70.25 24.85 71.64 28.72 73.1 32.56Z" fill="#124757"/>
<path d="M169.32 82.4999C168.07 83.7699 166.86 84.9599 165.69 86.1899C165.48 86.4099 165.43 86.7799 165.27 87.0599C165.18 87.2099 165 87.2899 164.86 87.4099C164.78 87.2799 164.67 87.1499 164.61 87.0099C164.12 85.6899 164.44 84.5999 165.55 83.7199C166.42 83.0299 167.22 82.2399 168.13 81.6199C168.73 81.2099 168.97 80.8099 168.71 80.1299C168.65 79.9699 168.64 79.7999 168.59 79.5799C167.28 79.8099 165.99 80.0099 164.71 80.2799C164.56 80.3099 164.46 80.7299 164.38 80.9899C164.28 81.3499 164.44 81.8799 163.69 81.8099C163.45 80.4399 163.21 79.0799 162.98 77.7099C162.96 77.6099 163.1 77.3899 163.17 77.3899C163.31 77.3899 163.53 77.4399 163.6 77.5499C163.8 77.8599 163.95 78.1999 164.15 78.5999C165.75 78.3199 167.37 78.0399 169 77.7599C170.61 77.4799 172.22 77.1999 173.8 76.9299C174.14 76.4499 173.64 75.5799 174.68 75.3799C175.01 77.3099 175.44 79.1799 175.62 81.0699C175.77 82.6299 174.89 83.7499 173.55 84.1899C171.93 84.7199 170.59 84.3099 169.62 82.9799C169.53 82.8599 169.45 82.7299 169.3 82.5199L169.32 82.4999ZM169.47 79.4099C169.63 80.7299 169.74 81.9599 171.16 82.4699C172.16 82.8199 173.55 82.5099 174.13 81.8199C174.74 81.0899 174.78 79.5699 174.21 78.5899C172.66 78.8599 171.1 79.1299 169.47 79.4099Z" fill="white"/>
<path d="M164.92 94.3099C165.92 94.4099 165.53 95.2599 165.87 95.7599C169.09 96.0199 172.36 96.2899 175.56 96.5499C176.05 96.1599 175.76 95.2199 176.71 95.2599C176.72 95.4399 176.75 95.5899 176.74 95.7299C176.6 97.5499 176.59 99.3999 176.28 101.19C175.89 103.42 173.79 104.34 172.05 103.12C171.46 102.71 171.08 102.02 170.63 101.49C170.63 101.51 170.54 101.71 170.45 101.9C169.54 103.87 167.15 104.29 165.62 102.75C164.66 101.78 164.37 100.55 164.44 99.2599C164.53 97.6299 164.76 96.0199 164.93 94.3099H164.92ZM170.24 97.7399C168.64 97.6099 167.16 97.4899 165.53 97.3699C165.5 98.2199 165.38 98.9999 165.45 99.7699C165.57 101.02 166.5 101.87 167.68 101.94C168.85 102.01 169.64 101.38 169.93 100.03C170.09 99.3099 170.13 98.5699 170.23 97.7499L170.24 97.7399ZM175.64 98.1799C174.11 98.0599 172.68 97.9399 171.23 97.8299C171.03 99.1999 170.82 100.52 172.09 101.45C172.84 102 173.73 102.06 174.5 101.6C175.78 100.83 175.53 99.4799 175.64 98.1899V98.1799Z" fill="white"/>
<path d="M153.97 56.38C154.06 55.91 154.11 55.43 154.26 54.98C155.17 52.09 158.89 49.82 161.87 50.31C165 50.82 167.04 54.42 165.85 57.36C164.86 59.83 161.6 61.89 158.95 61.73C156.26 61.57 154.02 59.14 153.97 56.38ZM158.77 60.16C160.92 59.84 163.02 58.74 164.47 56.57C164.64 56.32 164.75 56.02 164.83 55.73C165.48 53.51 163.76 51.43 161.47 51.77C159.24 52.1 157.42 53.21 156.03 54.98C155.75 55.33 155.55 55.77 155.41 56.2C154.76 58.29 156.19 60.18 158.76 60.16H158.77Z" fill="white"/>
<path d="M56.53 156.45C54.99 155.34 53.61 154.36 52.23 153.37C51.22 154.4 51.21 156.02 52.31 156.88C52.89 157.33 53.65 157.55 54.32 157.88C54.49 157.96 54.62 158.11 54.77 158.22C54.63 158.35 54.49 158.49 54.34 158.62C54.3 158.66 54.22 158.66 54.15 158.67C52.37 158.88 51.02 158.07 49.91 156.8C48.9 155.64 48.74 154.3 49.3 152.89C49.49 152.41 49.76 151.95 50.06 151.52C52.1 148.67 55.62 148.78 57.55 151.74C58.09 152.57 58.22 153.47 57.81 154.35C57.48 155.06 56.99 155.71 56.52 156.45H56.53ZM52.72 152.51C53.52 153.09 54.21 153.58 54.97 154.13C55.29 153.61 55.61 153.15 55.86 152.65C56.11 152.16 56.09 151.68 55.63 151.29C55.15 150.88 54.62 150.86 54.13 151.24C53.65 151.61 53.23 152.05 52.71 152.51H52.72Z" fill="white"/>
<path d="M23.61 93.08C22.42 93.08 21.26 93.07 20.11 93.09C19.95 93.09 19.75 93.26 19.66 93.41C19.51 93.64 19.47 93.96 19.29 94.17C19.18 94.3 18.92 94.35 18.73 94.34C18.65 94.34 18.51 94.1 18.5 93.96C18.48 92.45 18.48 90.95 18.5 89.44C18.5 89.29 18.66 89.04 18.76 89.03C18.94 89.01 19.16 89.11 19.32 89.22C19.41 89.28 19.47 89.44 19.49 89.57C19.57 90.38 20.07 90.44 20.75 90.43C23.39 90.4 26.03 90.41 28.67 90.43C29.17 90.43 29.41 90.32 29.52 89.81C29.62 89.35 29.76 88.82 30.51 89.09C30.53 89.22 30.56 89.36 30.56 89.51C30.61 91.06 30.69 92.61 30.67 94.15C30.67 94.95 30.59 95.77 30.37 96.53C29.98 97.88 29.05 98.71 27.6 98.84C26.11 98.98 24.96 98.44 24.21 97.11C24.14 96.98 24.07 96.85 23.95 96.63C22.99 97.28 22.09 97.96 21.11 98.52C20.17 99.06 19.62 100.11 18.46 100.65C18.46 99.52 18.37 98.59 18.5 97.7C18.56 97.3 18.98 96.84 19.36 96.61C20.45 95.94 21.58 95.33 22.73 94.76C23.75 94.26 23.77 94.31 23.59 93.05L23.61 93.08ZM24.81 93.11C24.56 94.43 24.86 95.31 25.68 95.8C26.53 96.3 28 96.25 28.74 95.69C29.43 95.16 29.68 94.16 29.35 93.11H24.81Z" fill="white"/>
<path d="M21.7301 117.5C21.3401 115.81 20.9501 114.1 20.5601 112.39C20.9601 112.163 21.4734 112.473 22.1001 113.32C22.7601 112.89 23.4301 112.49 24.0601 112.03C24.2201 111.92 24.3301 111.6 24.3001 111.4C24.1201 110.46 23.9101 109.52 23.6601 108.6C23.6101 108.42 23.4101 108.18 23.2401 108.15C22.4701 108.01 21.6901 107.93 20.9301 107.83C20.5401 108.35 21.1701 109.44 19.9001 109.47C19.5901 108.12 19.2801 106.77 18.9601 105.41C19.4401 105.05 19.8201 105.16 20.0401 105.63C20.2901 106.16 20.7201 106.29 21.2301 106.36C24.6601 106.89 28.0801 107.44 31.5001 107.95C32.0201 108.03 32.2401 108.23 32.3501 108.73C32.4501 109.21 32.3501 109.46 31.9401 109.74C29.0201 111.69 26.1301 113.68 23.2201 115.64C22.8501 115.89 22.6301 116.14 22.6301 116.62C22.6301 117.12 22.4901 117.59 21.7301 117.49V117.5ZM25.4901 111.15C26.8401 110.35 28.1201 109.59 29.3701 108.85C27.9001 108.7 26.4101 108.54 24.8601 108.37C25.0801 109.33 25.2801 110.2 25.4901 111.14V111.15Z" fill="white"/>
<path d="M86.6301 22.51C86.8001 23.84 86.9601 25.13 87.1501 26.42C87.1701 26.54 87.3501 26.68 87.4801 26.73C87.6601 26.8 87.8801 26.74 88.0601 26.82C88.2901 26.92 88.4801 27.1 88.6901 27.24C88.4701 27.36 88.2601 27.54 88.0301 27.58C86.8001 27.76 85.5701 27.91 84.3501 28.07C84.2101 27.71 84.5834 27.3166 85.4701 26.89C85.0501 23.66 84.6201 20.41 84.2101 17.22C83.7501 16.8 82.8301 17.3 82.7101 16.26C84.5601 16 86.3601 15.64 88.1701 15.51C89.8501 15.39 91.0201 16.29 91.4301 17.69C91.9301 19.39 91.4301 20.74 89.9401 21.7C89.8501 21.76 89.7601 21.82 89.5701 21.94C90.8001 23.25 92.0001 24.54 93.2301 25.8C93.4301 26 93.7801 26.04 94.0401 26.2C94.1601 26.28 94.2201 26.46 94.3101 26.59C94.1901 26.66 94.0801 26.77 93.9601 26.81C92.6801 27.19 91.5701 27.01 90.7401 25.84C90.0701 24.9 89.2801 24.05 88.6601 23.08C88.2701 22.48 87.8901 22.19 87.1901 22.44C87.0301 22.5 86.8601 22.5 86.6401 22.54L86.6301 22.51ZM86.5201 21.67C87.7401 21.54 88.9701 21.56 89.5601 20.25C90.0301 19.2 89.9901 18.11 89.2301 17.24C88.3201 16.2 87.1101 16.51 85.8701 16.76C86.0901 18.41 86.3001 20.01 86.5101 21.68L86.5201 21.67Z" fill="white"/>
<path d="M20.9101 74.5599C22.1101 74.5999 21.6201 75.5699 21.9801 76.1599C23.3401 76.4299 24.7901 76.7199 26.2301 76.9999C27.6401 77.2799 29.0601 77.5299 30.4601 77.8499C31.0601 77.9899 31.4001 77.9099 31.6701 77.3099C31.9701 76.6299 32.0501 76.6499 32.7601 76.9399C32.1901 79.8499 31.6201 82.7799 31.0201 85.8299C30.0301 85.5199 29.1001 85.2299 28.1901 84.9099C28.0901 84.8799 27.9901 84.6299 28.0101 84.5099C28.0401 84.3399 28.1701 84.1799 28.2901 84.0499C28.3501 83.9899 28.5001 84.0099 28.6001 83.9799C29.6667 83.7666 30.3067 83.1133 30.5201 82.0199C30.6101 81.5699 30.6901 81.1299 30.7901 80.6099C29.4501 80.3499 28.1501 80.0899 26.7901 79.8199C26.6701 80.4199 26.5301 80.9799 26.4501 81.5599C26.4301 81.7099 26.5601 81.9099 26.6701 82.0399C26.8801 82.2599 27.1501 82.4199 27.3401 82.6499C27.4401 82.7699 27.4701 83.0099 27.4201 83.1599C27.3901 83.2599 27.1401 83.3599 27.0101 83.3399C25.9001 83.1499 24.7901 82.9399 23.4401 82.6899C23.7101 82.3399 23.8401 81.9799 24.0201 81.9599C25.5101 81.7999 25.3501 80.6299 25.5301 79.5799C24.1201 79.2999 22.7401 79.0299 21.3001 78.7499C21.1001 79.7599 20.8901 80.7099 20.7301 81.6699C20.7001 81.8199 20.8601 82.0599 21.0001 82.1699C21.3901 82.4799 21.8501 82.7099 22.2301 83.0299C22.4001 83.1699 22.5001 83.4799 22.4901 83.7099C22.4901 83.8199 22.1501 84.0099 21.9801 83.9999C21.0301 83.9499 20.0801 83.8499 19.0701 83.7599C19.6901 80.6199 20.2801 77.6099 20.8801 74.5499L20.9101 74.5599Z" fill="white"/>
<path d="M33.37 74.4999C32.72 74.4899 32.53 74.1399 32.61 73.6399C32.7 73.0999 32.47 72.7599 32.08 72.4199C29.55 70.1699 27.07 67.8799 24.53 65.6499C23.8 65.0099 24.4 64.4699 24.47 63.8899C24.54 63.3499 25.01 63.5499 25.31 63.5499C28.76 63.5499 32.2 63.5499 35.65 63.5799C36.18 63.5799 36.61 63.5199 36.93 63.0199C37.19 62.5999 37.57 62.4199 38.06 62.9099C37.37 64.6299 36.66 66.3799 35.94 68.1399C34.74 67.9799 35.43 67.0499 35.19 66.4599C32.45 66.3199 29.67 66.1899 26.98 66.0499C29.03 67.7399 31.16 69.4999 33.28 71.2499C33.85 70.9699 33.95 69.8499 34.99 70.4799C34.45 71.8299 33.91 73.1699 33.37 74.4899V74.4999Z" fill="white"/>
<path d="M130.73 22.1199C132.04 22.6899 133.33 23.2599 134.62 23.8199C134.46 24.2266 133.92 24.3599 133 24.2199C131.69 27.2299 130.37 30.2499 129.08 33.2199C129.31 33.7899 130.37 33.7899 129.9 34.7499C128.56 34.1699 127.27 33.6099 125.93 33.0299C126.28 32.1399 126.95 32.6999 127.5 32.5599C128.09 31.2099 128.7 29.8199 129.33 28.3699C127.73 27.6699 126.18 26.9999 124.55 26.2899C123.96 27.6499 123.36 28.9699 122.82 30.3199C122.76 30.4599 123.05 30.7599 123.21 30.9499C123.45 31.2299 123.9 31.4399 123.38 31.9099C122.1 31.3499 120.81 30.7799 119.52 30.2199C119.653 29.8466 120.19 29.7132 121.13 29.8199C122.43 26.8299 123.74 23.8199 125.05 20.8199C124.85 20.2799 123.76 20.2499 124.22 19.2799C125.48 19.8299 126.69 20.3499 127.9 20.8899C128 20.9399 128.13 21.1499 128.09 21.2199C128.02 21.3499 127.86 21.5099 127.73 21.5199C127.39 21.5399 127.04 21.4899 126.63 21.4599C126.08 22.7299 125.51 24.0299 124.92 25.3899C126.52 26.0899 128.08 26.7699 129.69 27.4799C130.25 26.2099 130.8 25.0099 131.28 23.7799C131.34 23.6299 131.1 23.3299 130.94 23.1299C130.72 22.8499 130.22 22.6699 130.72 22.1199H130.73Z" fill="white"/>
<path d="M36.73 125.06C36.75 124.43 36.24 123.71 37.27 123.38C38.73 125.97 40.19 128.56 41.71 131.26C40.7 131.7 39.74 132.11 38.82 132.52C38.35 132.1 38.34 131.8 38.71 131.37C39.74 130.17 39.72 130.16 38.93 128.76C38.67 128.31 38.42 127.85 38.13 127.33C36.84 128.05 35.58 128.76 34.27 129.5C34.6 130.09 34.84 130.71 35.25 131.16C35.48 131.41 36.01 131.39 36.4 131.5C36.67 131.58 36.92 131.69 37.18 131.79C37.18 131.89 37.18 132 37.18 132.1C36.09 132.71 35 133.32 33.91 133.93C33.84 133.9 33.76 133.86 33.69 133.83C33.69 133.59 33.59 133.26 33.71 133.13C34.45 132.32 34.22 131.58 33.64 130.82C33.48 130.62 33.38 130.37 33.21 130.09C32.04 130.75 30.89 131.39 29.78 132.02C29.71 132.7 30.52 133.48 29.34 133.94C28.48 132.41 27.61 130.87 26.76 129.35C27.1467 129.003 27.7 129.127 28.42 129.72C31.17 128.17 33.94 126.62 36.72 125.05L36.73 125.06Z" fill="white"/>
<path d="M145.87 140.33C146.19 139.66 146.63 139.51 147.33 139.61C150.64 140.06 153.95 140.44 157.26 140.85C157.73 140.91 158.19 141.04 158.63 141.13C156.37 139.22 154.1 137.31 151.85 135.4C151.28 135.48 150.81 136.25 150.09 135.59C150.89 134.65 151.66 133.74 152.42 132.84C152.76 133.013 152.793 133.6 152.52 134.6C154.85 136.58 157.18 138.58 159.55 140.54C159.7 140.67 160.09 140.56 160.35 140.5C160.72 140.42 161.07 139.98 161.46 140.59C160.89 141.25 160.33 141.94 159.72 142.59C159.61 142.71 159.32 142.72 159.12 142.7C155.73 142.27 152.33 141.83 148.94 141.39C148.88 141.39 148.81 141.39 148.66 141.39C149.47 142.07 150.24 142.71 150.99 143.35C152.07 144.27 153.17 145.17 154.22 146.11C154.6 146.45 154.9 146.54 155.36 146.29C155.69 146.11 156.1 145.81 156.5 146.4C155.77 147.25 155.04 148.13 154.27 148.98C154.22 149.03 153.87 148.9 153.76 148.77C153.68 148.67 153.71 148.41 153.79 148.27C154.21 147.47 153.79 147.05 153.2 146.56C150.9 144.66 148.64 142.7 146.36 140.76C146.2 140.62 146.04 140.47 145.86 140.31L145.87 140.33Z" fill="white"/>
<path d="M143.62 142.76C144.27 143.56 143.35 143.84 143.23 144.47C145.25 146.95 147.34 149.51 149.42 152.06C149.9 151.91 150.35 151.75 150.8 151.64C150.87 151.62 151 151.84 151.15 152C149.06 153.7 147.01 155.38 144.88 157.13C144.33 156.37 143.8 155.65 143.28 154.93C143.513 154.643 143.847 154.627 144.28 154.88C144.62 155.08 144.96 155.28 145.35 155.51C146.27 154.76 147.19 154.01 148.17 153.22C147.25 152.09 146.34 150.98 145.39 149.8C144.73 150.34 144.06 150.81 143.49 151.4C143.33 151.57 143.48 152.03 143.47 152.36C143.47 152.62 143.43 152.87 143.41 153.13C143.33 153.15 143.24 153.17 143.16 153.19C142.45 152.32 141.73 151.46 141.02 150.59C141.04 150.52 141.05 150.44 141.07 150.37C141.31 150.37 141.61 150.28 141.79 150.39C142.45 150.79 142.97 150.7 143.5 150.13C143.87 149.74 144.33 149.43 144.78 149.06C143.79 147.85 142.83 146.67 141.85 145.46C140.92 146.22 140.02 146.93 139.15 147.68C139.03 147.78 138.97 148.05 139 148.22C139.11 148.73 139.31 149.22 139.43 149.73C139.46 149.86 139.37 150.06 139.27 150.15C139.22 150.2 138.98 150.14 138.89 150.05C138.28 149.43 137.7 148.8 137.06 148.13C139.28 146.32 141.42 144.57 143.63 142.76H143.62Z" fill="white"/>
<path d="M97.4901 15.8399C97.1001 15.6899 96.7401 15.5799 96.4201 15.3999C96.2901 15.3299 96.2601 15.0999 96.1801 14.9399C96.3201 14.8799 96.4701 14.7499 96.6101 14.7599C97.7901 14.8099 98.9601 14.8699 100.14 14.9499C100.28 14.9499 100.42 15.0899 100.56 15.1599C100.46 15.3099 100.4 15.4999 100.26 15.5999C100.13 15.6999 99.9401 15.7399 99.7701 15.7499C99.37 15.7899 99.2201 15.9899 99.2101 16.3899C99.1201 18.5899 98.9701 20.7899 98.9101 22.9899C98.8501 25.4099 100.89 26.6999 103.12 25.7099C104.16 25.2499 104.45 24.3199 104.52 23.2999C104.62 21.8199 104.69 20.3399 104.76 18.8599C104.78 18.3799 104.75 17.8899 104.83 17.4199C104.97 16.6599 104.84 16.1299 104.02 15.8799C103.84 15.8299 103.74 15.5199 103.61 15.3199C103.81 15.2499 104.02 15.1199 104.22 15.1299C105.07 15.1499 105.92 15.1899 106.77 15.2599C106.95 15.2699 107.12 15.4199 107.29 15.5099C107.18 15.6699 107.08 15.9599 106.95 15.9799C105.87 16.1599 105.88 16.9199 105.86 17.7599C105.81 19.5899 105.71 21.4199 105.6 23.2499C105.45 25.7799 104.01 27.1099 101.49 27.0499C101.04 27.0499 100.57 26.9899 100.13 26.8899C98.1701 26.4599 97.1501 25.2299 97.2001 23.2299C97.2601 20.9599 97.4101 18.6999 97.5201 16.4299C97.5201 16.2399 97.5201 16.0399 97.5201 15.8199L97.4901 15.8399Z" fill="white"/>
<path d="M174.12 109.47C174.35 109.1 174.52 108.79 174.74 108.53C174.84 108.42 175.07 108.42 175.24 108.37C175.28 108.52 175.39 108.68 175.36 108.81C175.07 109.97 174.77 111.13 174.44 112.29C174.41 112.41 174.2 112.58 174.11 112.57C173.98 112.55 173.78 112.34 173.8 112.25C174 111.08 173.14 111 172.36 110.81C170.56 110.36 168.77 109.86 166.98 109.42C166.52 109.31 166.03 109.29 165.56 109.27C165.35 109.26 165.12 109.31 164.92 109.39C163.71 109.88 163.43 110.97 163.27 112.09C163.14 113.05 163.47 113.87 164.35 114.37C164.76 114.6 165.22 114.78 165.68 114.91C167.64 115.45 169.6 115.94 171.56 116.48C172.02 116.61 172.26 116.51 172.52 116.13C172.74 115.81 172.92 115.27 173.57 115.69C173.27 116.83 172.97 117.97 172.66 119.11C172.01 119.16 171.98 118.71 171.96 118.34C171.93 117.77 171.69 117.54 171.13 117.41C169.16 116.94 167.2 116.41 165.24 115.87C163.83 115.48 162.59 114.78 162.27 113.23C161.88 111.31 162.44 109.58 163.88 108.23C164.8 107.37 165.95 107.39 167.09 107.68C169.23 108.22 171.35 108.79 173.48 109.35C173.69 109.4 173.9 109.45 174.12 109.5V109.47Z" fill="white"/>
<path d="M169.34 63C169.54 62.41 168.94 61.69 169.89 61.34C170.15 62.05 170.41 62.71 170.65 63.38C170.89 64.03 171.13 64.69 171.36 65.34C171.03 65.72 170.75 65.6 170.57 65.26C170.21 64.59 169.77 64.63 169.14 64.88C167.38 65.58 165.58 66.2 163.81 66.87C163.36 67.04 162.92 67.23 162.51 67.48C161.65 68.02 161.25 68.81 161.49 69.82C161.61 70.32 161.76 70.84 161.99 71.3C162.5 72.3 163.4 72.74 164.5 72.51C165.16 72.37 165.8 72.15 166.43 71.92C168.01 71.35 169.58 70.74 171.16 70.19C171.66 70.02 171.91 69.8 171.86 69.23C171.83 68.86 171.77 68.35 172.47 68.34C172.88 69.44 173.28 70.53 173.69 71.62C173.363 71.86 172.85 71.6233 172.15 70.91C170.19 71.63 168.19 72.32 166.23 73.11C162.68 74.54 160.87 72.68 160.25 69.83C159.79 67.73 160.57 66.27 162.62 65.48C164.62 64.72 166.63 63.99 168.63 63.25C168.87 63.16 169.11 63.06 169.33 62.98L169.34 63Z" fill="white"/>
<path d="M134.47 157.76C133.59 157.67 132.67 157.7 131.83 157.47C129.82 156.93 128.92 154.52 130.06 152.78C131.11 151.19 132.69 150.41 134.55 150.17C134.74 150.15 135.07 150.32 135.16 150.5C135.52 151.22 135.82 151.97 136.11 152.72C136.16 152.84 136.08 153.02 136.05 153.17C135.88 153.14 135.67 153.17 135.56 153.07C135.08 152.66 134.65 152.18 134.17 151.78C133.97 151.62 133.67 151.49 133.42 151.51C132.37 151.57 131.2 152.71 131.05 153.74C130.92 154.66 131.5 155.6 132.42 155.74C133.14 155.85 133.89 155.8 134.63 155.81C135.45 155.83 136.3 155.76 137.1 155.9C138.46 156.13 139.3 157.03 139.63 158.34C139.95 159.61 139.44 160.69 138.42 161.37C137.44 162.03 136.3 162.46 135.22 162.96C134.85 163.13 134.56 163.01 134.4 162.59C134.15 161.94 133.86 161.3 133.62 160.65C133.57 160.52 133.66 160.35 133.69 160.19C133.86 160.22 134.07 160.19 134.19 160.29C134.58 160.61 134.95 160.95 135.29 161.31C135.59 161.62 135.88 161.72 136.27 161.52C136.66 161.32 137.07 161.16 137.43 160.93C138.05 160.54 138.41 159.97 138.26 159.22C138.12 158.49 137.71 157.89 136.94 157.76C136.13 157.62 135.3 157.62 134.48 157.55C134.48 157.62 134.47 157.68 134.46 157.75L134.47 157.76Z" fill="white"/>
<path d="M125.47 155.07C125.83 155 126.2 155.25 126.31 155.93C126.42 156.57 126.63 157.2 126.76 157.84C126.79 157.99 126.68 158.18 126.63 158.35C126.46 158.27 126.23 158.24 126.12 158.12C125.74 157.67 125.44 157.15 125.03 156.73C124.82 156.51 124.45 156.3 124.16 156.31C123.17 156.35 122.35 156.79 121.82 157.65C121.16 158.72 121.62 160.04 122.82 160.4C123.52 160.61 124.28 160.64 125 160.76C125.71 160.88 126.44 160.94 127.11 161.15C128.47 161.59 129.24 162.59 129.37 163.99C129.5 165.38 128.75 166.38 127.56 166.91C126.52 167.38 125.37 167.59 124.26 167.9C123.88 168.01 123.64 167.86 123.55 167.45C123.4 166.77 123.22 166.1 123.08 165.41C123.05 165.26 123.17 165.08 123.22 164.91C123.38 164.97 123.58 164.99 123.69 165.11C124.01 165.47 124.33 165.83 124.58 166.24C124.86 166.7 125.22 166.78 125.69 166.62C126.1 166.48 126.53 166.37 126.92 166.18C127.56 165.87 127.96 165.36 127.91 164.62C127.86 163.88 127.56 163.2 126.81 162.99C125.94 162.74 125.02 162.66 124.13 162.48C123.37 162.33 122.56 162.25 121.86 161.94C119.82 161.04 119.36 158.46 120.92 156.87C122.08 155.69 123.56 155.22 125.46 155.07H125.47Z" fill="white"/>
<path d="M158.25 122.78C158.39 121.21 159.11 119.69 160.48 118.51C160.62 118.39 160.99 118.35 161.15 118.44C161.84 118.81 162.5 119.24 163.15 119.68C163.28 119.77 163.33 119.97 163.42 120.12C163.24 120.19 163.05 120.33 162.88 120.31C162.29 120.25 161.72 120.08 161.13 120.08C160.78 120.08 160.33 120.21 160.11 120.45C159.51 121.13 159.27 121.98 159.44 122.89C159.66 124.11 160.92 124.8 162.03 124.26C162.67 123.95 163.22 123.47 163.82 123.07C164.43 122.65 165.01 122.17 165.66 121.83C166.96 121.15 168.22 121.35 169.31 122.29C170.36 123.2 170.55 124.43 170.04 125.64C169.59 126.71 168.9 127.68 168.31 128.69C168.12 129.01 167.85 129.03 167.54 128.81C166.94 128.41 166.33 128.04 165.73 127.63C165.62 127.55 165.58 127.37 165.51 127.23C165.67 127.15 165.83 127 165.98 127.01C166.54 127.06 167.1 127.17 167.67 127.23C167.84 127.25 168.14 127.22 168.19 127.11C168.56 126.4 169.04 125.7 169.17 124.94C169.36 123.84 168.04 122.86 166.95 123.29C166.16 123.6 165.46 124.17 164.73 124.63C164.03 125.07 163.39 125.63 162.64 125.96C160.54 126.87 158.25 125.29 158.25 122.78Z" fill="white"/>
<path d="M149.18 39.4799C149.28 39.8399 149.48 40.5499 149.67 41.2599C149.85 41.9299 150.09 42.5999 150.2 43.2799C150.41 44.5799 149.95 45.6399 148.88 46.4199C147.85 47.1699 146.73 47.2399 145.6 46.6899C144.15 45.9799 143.14 44.8499 142.5 43.3699C142.35 43.0299 142.35 42.7699 142.68 42.5199C143.3 42.0699 143.88 41.5699 144.49 41.1199C144.61 41.0299 144.82 41.0499 144.99 41.0199C144.99 41.2099 145.06 41.4299 144.99 41.5899C144.73 42.1399 144.39 42.6599 144.13 43.2099C144.03 43.4199 143.98 43.7199 144.04 43.9399C144.3 44.8999 145.69 45.8199 146.69 45.7299C147.75 45.6399 148.54 44.7799 148.4 43.7399C148.3 42.9499 148 42.1899 147.81 41.3999C147.63 40.6799 147.4 39.9699 147.34 39.2399C147.23 37.8599 147.9 36.8399 149.08 36.1799C150.23 35.5499 151.4 35.7599 152.31 36.5699C153.21 37.3699 153.91 38.3799 154.69 39.3099C154.91 39.5699 154.85 39.8199 154.57 40.0299C153.99 40.4599 153.43 40.9199 152.85 41.3299C152.73 41.4199 152.51 41.3799 152.34 41.3999C152.34 41.2099 152.28 40.9899 152.35 40.8299C152.56 40.3499 152.87 39.9199 153.06 39.4299C153.15 39.1899 153.13 38.8399 153.01 38.6199C152.83 38.2799 152.54 37.9999 152.26 37.7199C151.71 37.1699 151.07 36.9099 150.3 37.2099C149.54 37.5099 149.14 38.1899 149.17 39.4599L149.18 39.4799Z" fill="white"/>
<path d="M68.1201 158.05C67.5601 158.61 67.0701 159.13 66.5501 159.62C66.4601 159.7 66.2101 159.73 66.1001 159.66C65.9701 159.57 65.8401 159.37 65.8401 159.22C65.8301 158.83 65.8401 158.43 65.9201 158.05C66.0201 157.56 65.7401 157.32 65.3801 157.22C65.0101 157.12 64.5301 157.02 64.2401 157.18C63.9901 157.32 63.8001 157.85 63.8501 158.17C63.9301 158.62 64.2201 159.04 64.4701 159.45C64.8101 160.03 65.2401 160.56 65.5501 161.16C66.0301 162.05 66.0401 162.96 65.3901 163.8C64.7401 164.64 63.8501 164.84 62.8701 164.65C61.2901 164.34 60.0301 163.47 58.9601 162.3C58.8501 162.18 58.8401 161.78 58.9601 161.66C59.3901 161.2 59.8601 160.77 60.3601 160.39C60.7201 160.12 61.1401 160.39 61.1401 160.86C61.1401 161.27 61.1301 161.69 61.0601 162.1C60.9701 162.64 61.2501 162.91 61.6901 163.1C62.1801 163.31 62.7301 163.44 63.0801 162.99C63.3001 162.7 63.4101 162.15 63.2901 161.81C63.1001 161.25 62.6901 160.76 62.3901 160.23C62.0801 159.68 61.7001 159.15 61.5101 158.56C60.9401 156.78 62.2001 155.31 64.0501 155.6C65.6701 155.86 66.9101 156.81 68.1301 158.05H68.1201Z" fill="white"/>
<path d="M49.08 141.07C48.81 140.73 48.55 140.42 48.3 140.11C48.54 139.54 48.89 139.51 49.33 139.82C50.21 140.42 51.09 141.01 52.04 141.65C49.26 144.6 46.58 147.43 43.9 150.26C43.92 150.8 44.81 151.31 43.84 151.89C42.72 150.83 41.57 149.75 40.42 148.66C40.9 147.7 41.45 148.43 42.02 148.53C44.34 146.07 46.7 143.59 49.07 141.08L49.08 141.07Z" fill="white"/>
<path d="M114.55 17.72C113.8 17.55 113.13 17.36 112.45 17.25C112.28 17.22 112 17.37 111.89 17.52C111.52 18 111.22 18.54 110.86 19.03C110.78 19.14 110.58 19.21 110.44 19.21C110.38 19.21 110.25 18.98 110.26 18.87C110.4 17.88 110.57 16.9 110.74 15.84C114.01 16.6 117.19 17.33 120.46 18.08C120.16 19.1 119.89 20.06 119.59 21.01C119.56 21.12 119.33 21.28 119.3 21.26C119.16 21.16 118.98 21.02 118.95 20.87C118.84 20.27 118.81 19.66 118.69 19.06C118.65 18.88 118.46 18.64 118.28 18.59C117.63 18.4 116.97 18.27 116.23 18.11C115.48 21.34 114.74 24.54 114.01 27.73C114.48 28.04 114.93 28.32 115.36 28.64C115.41 28.67 115.3 28.91 115.25 29.11C113.69 28.75 112.17 28.4 110.66 28.05C110.693 27.6633 111.247 27.4433 112.32 27.39C113.05 24.21 113.79 21.02 114.55 17.73V17.72Z" fill="white"/>
<path d="M79.02 17.0799C79.28 18.1099 79.53 19.0399 79.75 19.9699C79.78 20.1099 79.64 20.2899 79.58 20.4499C79.44 20.3899 79.24 20.3699 79.15 20.2599C78.77 19.8099 78.4 19.3499 78.07 18.8599C77.86 18.5599 77.65 18.4999 77.3 18.6299C76.69 18.8599 76.07 19.0299 75.4 19.2399C76.4 22.4199 77.38 25.5399 78.35 28.6299C78.91 28.9499 79.76 28.1999 80.18 29.1999C78.68 29.6699 77.27 30.1199 75.86 30.5499C75.75 30.5799 75.51 30.4999 75.5 30.4299C75.47 30.2899 75.5 30.0599 75.59 29.9899C75.93 29.7199 76.31 29.4999 76.74 29.2199C75.76 26.1099 74.78 22.9799 73.77 19.7499C73.03 19.9799 72.3 20.1899 71.6 20.4499C71.48 20.4899 71.38 20.7499 71.37 20.9199C71.32 21.5099 71.32 22.0999 71.26 22.6799C71.24 22.8399 71.08 22.9799 70.99 23.1299C70.86 23.0199 70.66 22.9399 70.6 22.7999C70.24 21.9199 69.91 21.0199 69.54 20.0499C72.73 19.0499 75.84 18.0699 79.05 17.0599L79.02 17.0799Z" fill="white"/>
<path d="M34.17 141.41C34.8 140.56 35.22 141.32 35.77 141.5C37.35 140.23 38.95 138.93 40.57 137.63C40.37 137.29 40.2 136.99 40.04 136.71C40.33 136.2 40.65 136.18 41.05 136.54C41.81 137.22 42.58 137.88 43.42 138.62C41.32 140.32 39.34 141.92 37.37 143.52C37.45 144.07 38.12 144.68 37.12 145.09C36.14 143.88 35.16 142.67 34.17 141.43V141.41Z" fill="white"/>
<path d="M139.27 39.8399C139.43 40.4199 140.33 40.6799 139.74 41.4999C138.54 40.6099 137.4 39.7499 136.26 38.8999C136.433 38.5733 136.98 38.5466 137.9 38.8199C139.86 36.1999 141.83 33.5699 143.75 30.9899C143.68 30.3899 142.68 30.1099 143.33 29.3199C144.5 30.1999 145.64 31.0399 146.77 31.8899C146.617 32.2433 146.08 32.2699 145.16 31.9699C143.2 34.5899 141.23 37.2199 139.28 39.8399H139.27Z" fill="white"/>
<path d="M156.15 128.71C158.88 130.39 161.68 132.12 164.43 133.81C165.01 133.66 165.21 132.73 166.07 133.23C165.3 134.48 164.55 135.7 163.81 136.91C163.463 136.777 163.383 136.237 163.57 135.29C160.79 133.57 157.99 131.85 155.19 130.13C154.45 130.73 153.937 130.913 153.65 130.68C154.4 129.47 155.15 128.25 155.93 127C156.82 127.51 156.03 128.11 156.15 128.71Z" fill="white"/>
<path d="M44.3701 134.57C45.1001 134.55 45.9501 135.4 45.9701 136.19C45.9901 136.86 45.3801 137.49 44.7001 137.5C43.9401 137.51 43.1301 136.7 43.1001 135.9C43.0801 135.24 43.7001 134.59 44.3701 134.57Z" fill="white"/>
</g>
<defs>
<clipPath id="clip0_378_567">
<rect width="196.47" height="183.16" fill="white"/>
</clipPath>
</defs>
</svg>
